# Blender v3.0.1 OBJ File: 'untitledProps.blend'
# www.blender.org
mtllib book1.mtl
o book1_Cube.015
v 0.469580 -0.000105 0.296203
v 0.469580 -0.036685 0.296203
v 0.469580 0.034669 0.296203
v 0.491407 -0.093731 0.283723
v 0.489492 -0.094604 0.283723
v 0.491407 0.094263 0.283723
v 0.489492 -0.094604 -0.496910
v 0.491407 -0.093741 -0.496910
v 0.491407 0.094273 -0.496910
v 0.489493 0.094527 -0.498825
v 0.489492 0.095131 -0.496910
v 0.493175 0.061128 0.301326
v 0.495091 0.061567 0.301996
v 0.495091 -0.058422 0.302377
v 0.493176 -0.057963 0.301791
v 0.493085 0.036731 0.314072
v 0.495001 0.036778 0.315044
v 0.491407 0.077818 0.283723
v 0.489492 0.076964 0.283687
v 0.493085 -0.037275 0.311215
v 0.495001 -0.037267 0.312155
v 0.495091 0.070739 0.315244
v 0.495001 0.037622 0.332033
v 0.491407 -0.080353 0.283723
v 0.489492 -0.079494 0.283687
v 0.495001 -0.000170 0.337957
v 0.493085 -0.037071 0.333309
v 0.495001 -0.037081 0.332308
v 0.495091 -0.071361 0.317874
v 0.495001 -0.000148 0.319637
v 0.493085 -0.000146 0.318641
v 0.489492 0.076951 -0.496946
v 0.489493 0.076953 -0.498825
v 0.491407 0.077796 -0.496910
v 0.489493 -0.077511 -0.498825
v 0.484201 -0.076905 -0.496910
v 0.489492 -0.076916 -0.495524
v 0.491407 -0.077765 -0.496910
v 0.469580 0.035213 -0.475685
v 0.467665 0.035215 -0.477609
v 0.469580 0.000440 -0.470773
v 0.467665 0.000441 -0.472696
v 0.472896 0.061055 0.300072
v 0.475179 0.061130 0.300987
v 0.472963 -0.056484 0.300755
v 0.475179 -0.057962 0.301453
v 0.472950 0.036605 0.312612
v 0.475088 0.036733 0.313733
v 0.471496 0.076965 0.283349
v 0.469580 0.076056 0.283590
v 0.472861 -0.037223 0.309572
v 0.475088 -0.037274 0.310876
v 0.471495 -0.079493 0.283349
v 0.469580 -0.078880 0.281941
v 0.469580 -0.036140 -0.475687
v 0.475088 -0.000145 0.318303
v 0.472973 -0.000143 0.317037
v 0.469579 0.077011 -0.497330
v 0.471496 0.076952 -0.497284
v 0.469580 0.076055 -0.496847
v 0.467665 0.076359 -0.498927
v 0.467665 -0.076303 -0.486216
v 0.469580 -0.076311 -0.484294
v 0.471495 -0.076915 -0.485234
v 0.489492 0.095131 0.283723
v 0.493176 0.071212 0.315927
v 0.493085 0.037671 0.333035
v 0.493085 -0.000171 0.338997
v 0.493176 -0.071904 0.318524
v -0.469580 -0.000105 0.296203
v 0.467665 -0.036139 -0.477609
v -0.469580 -0.036685 0.296203
v -0.469580 0.034669 0.296203
v -0.491407 -0.093731 0.283723
v -0.489492 -0.094604 0.283723
v -0.489492 0.095131 0.283723
v -0.491407 0.094263 0.283723
v 0.489493 -0.094001 -0.498825
v -0.489492 -0.094604 -0.496910
v -0.489492 -0.094001 -0.498825
v -0.491407 -0.093741 -0.496910
v -0.491407 0.094273 -0.496910
v -0.489492 0.094527 -0.498825
v -0.489492 0.095131 -0.496910
v -0.493175 0.061128 0.301326
v -0.495091 0.061567 0.301996
v -0.495091 -0.058422 0.302377
v -0.493175 -0.057963 0.301791
v -0.493085 0.036731 0.314072
v -0.495000 0.036778 0.315044
v -0.491407 0.077818 0.283723
v -0.489491 0.076964 0.283687
v -0.493085 -0.037275 0.311215
v -0.495000 -0.037267 0.312155
v -0.493176 0.071212 0.315927
v -0.495091 0.070739 0.315244
v -0.493085 0.037671 0.333035
v -0.495000 0.037622 0.332033
v -0.491407 -0.080353 0.283723
v -0.489492 -0.079494 0.283687
v -0.495000 -0.000170 0.337957
v -0.493085 -0.000171 0.338997
v -0.493085 -0.037071 0.333309
v -0.495000 -0.037081 0.332308
v -0.493176 -0.071904 0.318524
v -0.495091 -0.071361 0.317874
v -0.495000 -0.000148 0.319637
v -0.493085 -0.000146 0.318641
v -0.489491 0.076951 -0.496946
v -0.489492 0.076953 -0.498825
v -0.489492 0.077557 -0.498825
v -0.491407 0.077796 -0.496910
v -0.489492 -0.077511 -0.498825
v -0.484201 -0.076905 -0.496910
v -0.489492 -0.076916 -0.495524
v -0.491407 -0.077765 -0.496910
v 0.489493 0.077557 -0.498825
v -0.469580 0.035213 -0.475685
v -0.467665 0.035215 -0.477609
v -0.469580 0.000440 -0.470773
v -0.467665 0.000441 -0.472696
v -0.472896 0.061055 0.300072
v -0.475179 0.061130 0.300987
v -0.472963 -0.056484 0.300755
v -0.475179 -0.057962 0.301453
v -0.472950 0.036605 0.312612
v -0.475088 0.036733 0.313733
v -0.471495 0.076965 0.283349
v -0.469580 0.076056 0.283590
v -0.472861 -0.037223 0.309572
v -0.475088 -0.037274 0.310876
v -0.471495 -0.079493 0.283349
v -0.469580 -0.078880 0.281941
v -0.469580 -0.036140 -0.475687
v -0.467665 -0.036139 -0.477609
v -0.475088 -0.000145 0.318303
v -0.472972 -0.000143 0.317037
v -0.469579 0.077011 -0.497330
v -0.471495 0.076952 -0.497284
v -0.469580 0.076055 -0.496847
v -0.467665 0.076359 -0.498927
v -0.469071 -0.076904 -0.488260
v -0.467665 -0.076303 -0.486216
v -0.469580 -0.076311 -0.484294
v -0.471495 -0.076915 -0.485234
v 0.469071 -0.076904 -0.488260
vt 0.324615 0.471786
vt 0.597201 0.471786
vt 0.601688 0.516905
vt 0.332086 0.516310
vt 0.603086 0.488115
vt 0.607516 0.514770
vt 0.332226 0.594098
vt 0.601828 0.594693
vt 0.596930 0.640694
vt 0.329299 0.637892
vt 0.606596 0.595256
vt 0.603558 0.616254
vt 0.601756 0.554814
vt 0.333870 0.554219
vt 0.609134 0.554831
vt 0.445216 0.077017
vt 0.450165 0.133045
vt 0.449583 0.133035
vt 0.444598 0.076592
vt 0.450727 0.180591
vt 0.450145 0.180582
vt 0.448509 0.230487
vt 0.447927 0.230478
vt 0.445179 0.285243
vt 0.444598 0.285224
vt 0.918007 0.460539
vt 0.910482 0.505055
vt 0.640880 0.505336
vt 0.645421 0.460222
vt 0.635054 0.503194
vt 0.639516 0.476545
vt 0.624188 0.462650
vt 0.624188 0.506390
vt 0.296314 0.506390
vt 0.296314 0.462650
vt 0.624188 0.584184
vt 0.624188 0.629166
vt 0.296314 0.629166
vt 0.296314 0.584184
vt 0.910248 0.582843
vt 0.913122 0.626640
vt 0.645488 0.629130
vt 0.640645 0.583124
vt 0.638890 0.604682
vt 0.635876 0.583681
vt 0.908652 0.542962
vt 0.640765 0.543245
vt 0.624188 0.546243
vt 0.296314 0.546243
vt 0.633388 0.543253
vt 0.291537 0.474997
vt 0.292322 0.474679
vt 0.284741 0.519525
vt 0.284012 0.519512
vt 0.282910 0.557433
vt 0.282182 0.557420
vt 0.284506 0.597313
vt 0.283778 0.597300
vt 0.287380 0.641104
vt 0.286652 0.641097
vt 0.553918 0.238007
vt 0.552651 0.220298
vt 0.558838 0.220301
vt 0.560104 0.238011
vt 0.552682 0.152074
vt 0.552682 0.110840
vt 0.558869 0.110843
vt 0.558869 0.152077
vt 0.461379 0.974648
vt 0.501846 0.977189
vt 0.501821 0.983587
vt 0.461582 0.981687
vt 0.542101 0.975511
vt 0.543021 0.981444
vt 0.417980 0.965839
vt 0.417980 0.643824
vt 0.420932 0.643963
vt 0.420932 0.965979
vt 0.604744 0.964352
vt 0.586817 0.964384
vt 0.586793 0.691729
vt 0.604755 0.691697
vt 0.424211 0.976716
vt 0.438316 0.971278
vt 0.603412 0.568007
vt 0.603412 0.968923
vt 0.599729 0.963629
vt 0.599729 0.568181
vt 0.552682 0.193099
vt 0.558869 0.193103
vt 0.414381 0.964696
vt 0.399797 0.964722
vt 0.552651 0.087896
vt 0.558838 0.087899
vt 0.579126 0.975517
vt 0.569126 0.970908
vt 0.553918 0.064066
vt 0.560104 0.064069
vt 0.398831 0.692012
vt 0.399489 0.691342
vt 0.399786 0.692067
vt 0.605019 0.690970
vt 0.605677 0.691638
vt 0.585858 0.691661
vt 0.585860 0.691005
vt 0.586518 0.691004
vt 0.603412 0.970615
vt 0.602329 0.969636
vt 0.603804 0.969627
vt 0.430114 0.059466
vt 0.430178 0.058794
vt 0.431160 0.059466
vt 0.430815 0.060137
vt 0.599233 0.965185
vt 0.598946 0.964140
vt 0.599337 0.963152
vt 0.552024 0.110843
vt 0.551993 0.087382
vt 0.553259 0.063111
vt 0.585871 0.964316
vt 0.417203 0.692036
vt 0.417466 0.691310
vt 0.552024 0.193145
vt 0.552024 0.152066
vt 0.551993 0.220781
vt 0.605677 0.964293
vt 0.398831 0.964667
vt 0.553259 0.238957
vt 0.617171 0.028209
vt 0.643278 0.029500
vt 0.643794 0.030172
vt 0.618118 0.028880
vt 0.421246 0.965998
vt 0.417979 0.966614
vt 0.721134 0.029468
vt 0.761366 0.029468
vt 0.761375 0.030140
vt 0.721132 0.030140
vt 0.799337 0.029500
vt 0.798744 0.030172
vt 0.679865 0.029468
vt 0.679919 0.030140
vt 0.824062 0.028209
vt 0.823110 0.028880
vt 0.418114 0.692461
vt 0.415304 0.964625
vt 0.482958 0.083548
vt 0.460013 0.083579
vt 0.461660 0.082817
vt 0.483022 0.082782
vt 0.560763 0.064759
vt 0.559600 0.089546
vt 0.428116 0.342622
vt 0.428129 0.070036
vt 0.429121 0.069939
vt 0.429121 0.342593
vt 0.559596 0.152087
vt 0.559604 0.192967
vt 0.559623 0.220224
vt 0.560763 0.236998
vt 0.559635 0.110908
vt 0.599337 0.568911
vt 0.404189 0.969636
vt 0.407284 0.965186
vt 0.549805 0.238007
vt 0.543618 0.238011
vt 0.544885 0.220301
vt 0.551071 0.220298
vt 0.449433 0.402160
vt 0.431455 0.402160
vt 0.431455 0.058983
vt 0.449433 0.058983
vt 0.572516 0.026246
vt 0.572516 0.961772
vt 0.539278 0.961686
vt 0.539278 0.026332
vt 0.551040 0.152074
vt 0.544853 0.152077
vt 0.544853 0.110843
vt 0.551040 0.110840
vt 0.460621 0.037025
vt 0.460824 0.029986
vt 0.501064 0.028086
vt 0.501088 0.034485
vt 0.430744 0.026246
vt 0.430744 0.961772
vt 0.408282 0.958278
vt 0.408282 0.029740
vt 0.542263 0.030229
vt 0.541343 0.036162
vt 0.578588 0.965839
vt 0.575636 0.965979
vt 0.575636 0.643963
vt 0.578588 0.643823
vt 0.603987 0.047322
vt 0.603998 0.319977
vt 0.586035 0.319944
vt 0.586059 0.047289
vt 0.501787 0.961686
vt 0.501787 0.026332
vt 0.423453 0.034957
vt 0.437558 0.040396
vt 0.403106 0.568007
vt 0.406788 0.568181
vt 0.406788 0.963629
vt 0.403106 0.968923
vt 0.544853 0.193103
vt 0.551040 0.193099
vt 0.465238 0.026332
vt 0.465238 0.961686
vt 0.575321 0.965998
vt 0.578588 0.966614
vt 0.562429 0.392143
vt 0.543927 0.392143
vt 0.543927 0.048966
vt 0.562429 0.048966
vt 0.413623 0.046977
vt 0.399039 0.046951
vt 0.544884 0.087899
vt 0.551071 0.087896
vt 0.976599 0.036567
vt 0.976599 0.963493
vt 0.586053 0.963493
vt 0.586053 0.036567
vt 0.012989 0.971225
vt 0.012989 0.021049
vt 0.411386 0.021049
vt 0.411386 0.971225
vt 0.578368 0.036156
vt 0.568368 0.040765
vt 0.596233 0.029740
vt 0.596233 0.958278
vt 0.543618 0.064069
vt 0.549805 0.064066
vt 0.398073 0.319661
vt 0.399028 0.319606
vt 0.398731 0.320331
vt 0.604920 0.320035
vt 0.604261 0.320703
vt 0.585100 0.320012
vt 0.585760 0.320670
vt 0.585102 0.320668
vt 0.403106 0.970615
vt 0.402714 0.969627
vt 0.430114 0.388682
vt 0.430815 0.388011
vt 0.431160 0.388682
vt 0.430178 0.389354
vt 0.407180 0.963152
vt 0.407572 0.964140
vt 0.551698 0.110843
vt 0.551730 0.087382
vt 0.550463 0.063111
vt 0.585113 0.047357
vt 0.450103 0.058983
vt 0.450103 0.402160
vt 0.989295 0.210956
vt 0.989949 0.210956
vt 0.989950 0.554133
vt 0.989295 0.554133
vt 0.416445 0.319637
vt 0.416708 0.320364
vt 0.551698 0.193145
vt 0.551698 0.152066
vt 0.551730 0.220781
vt 0.604919 0.047380
vt 0.398073 0.047006
vt 0.550463 0.238957
vt 0.651290 0.967094
vt 0.652236 0.966423
vt 0.677912 0.965131
vt 0.677397 0.965803
vt 0.755253 0.965834
vt 0.755250 0.965163
vt 0.795494 0.965163
vt 0.795485 0.965834
vt 0.832863 0.965131
vt 0.833455 0.965803
vt 0.714037 0.965163
vt 0.713984 0.965834
vt 0.857228 0.966422
vt 0.858180 0.967094
vt 0.414546 0.047049
vt 0.417356 0.319212
vt 0.431162 0.410354
vt 0.430505 0.410354
vt 0.430505 0.067177
vt 0.431162 0.067177
vt 0.544088 0.110908
vt 0.544123 0.089546
vt 0.542960 0.064759
vt 0.445277 0.073581
vt 0.446282 0.073610
vt 0.446282 0.346264
vt 0.445290 0.346167
vt 0.544118 0.192967
vt 0.544126 0.152087
vt 0.544100 0.220224
vt 0.542960 0.236998
vt 0.407180 0.568911
vn 0.6829 -0.5300 -0.5027
vn 0.7673 -0.5696 -0.2948
vn 0.9932 -0.0275 -0.1130
vn 0.9350 -0.1008 -0.3400
vn 0.7013 -0.4092 -0.5837
vn 0.7678 -0.1879 -0.6125
vn 0.9263 0.0635 -0.3715
vn 0.9910 0.0350 -0.1290
vn 0.7857 0.5831 -0.2065
vn 0.6391 0.7193 -0.2724
vn 0.7877 0.1859 -0.5874
vn 0.7743 0.2881 -0.5634
vn 0.9957 0.0018 -0.0927
vn 0.9358 -0.0011 -0.3526
vn 0.7963 0.0216 -0.6045
vn 0.3848 -0.2909 -0.8759
vn 0.2510 0.2662 -0.9306
vn 0.3960 -0.0032 -0.9182
vn 0.3834 0.1595 -0.9097
vn 0.2373 0.7589 -0.6064
vn -0.6829 -0.5300 -0.5027
vn -0.9350 -0.1008 -0.3400
vn -0.9932 -0.0275 -0.1130
vn -0.7673 -0.5696 -0.2948
vn -0.7678 -0.1879 -0.6125
vn -0.7013 -0.4092 -0.5837
vn -0.2373 0.7589 -0.6064
vn -0.3834 0.1595 -0.9097
vn -0.3848 -0.2909 -0.8759
vn -0.2511 0.2662 -0.9306
vn -0.9263 0.0635 -0.3715
vn -0.6391 0.7193 -0.2724
vn -0.7857 0.5831 -0.2065
vn -0.9910 0.0350 -0.1290
vn -0.7743 0.2881 -0.5634
vn -0.7877 0.1859 -0.5873
vn -0.9358 -0.0011 -0.3526
vn -0.9957 0.0018 -0.0927
vn -0.3960 -0.0032 -0.9182
vn -0.7963 0.0216 -0.6045
vn 0.2080 -0.9012 -0.3801
vn 0.2120 -0.5892 -0.7797
vn 0.1730 -0.5897 -0.7889
vn 0.1991 -0.9210 -0.3349
vn 0.2482 0.0370 -0.9680
vn 0.2224 0.3060 -0.9257
vn 0.2617 0.2934 -0.9195
vn 0.2619 0.0350 -0.9645
vn 0.8601 0.1548 -0.4860
vn 0.8767 0.0173 -0.4807
vn 0.8354 0.0010 0.5496
vn 0.8296 -0.1576 0.5357
vn 0.8748 -0.1408 -0.4635
vn 0.8258 0.1803 0.5344
vn 0.2594 -0.9630 -0.0731
vn 0.1276 -0.9883 -0.0830
vn 0.7793 0.5986 0.1854
vn 0.8893 -0.4039 -0.2147
vn 0.8408 -0.4513 -0.2990
vn 0.8224 0.4765 -0.3108
vn 0.8044 -0.4061 0.4335
vn 0.8451 0.2530 -0.4710
vn 0.2104 0.8705 -0.4450
vn 0.1874 0.9803 -0.0621
vn 0.0987 0.9945 -0.0345
vn 0.2726 0.8459 -0.4584
vn 0.2358 -0.2966 -0.9254
vn 0.2348 -0.2861 -0.9290
vn 0.9010 0.3714 -0.2241
vn 0.7850 -0.5979 0.1625
vn 0.1968 0.5139 -0.8350
vn 0.2733 0.5062 -0.8180
vn 0.8109 0.4060 0.4213
vn 0.8584 -0.2717 -0.4350
vn 0.2047 -0.9678 -0.1463
vn 0.3261 -0.5316 -0.7817
vn 0.8230 -0.4756 -0.3107
vn 0.3258 0.5315 -0.7819
vn 0.2037 0.9680 -0.1464
vn 0.2592 -0.7838 -0.5643
vn 0.3900 -0.2464 -0.8872
vn 0.3152 0.5704 -0.7585
vn 0.0121 0.9884 -0.1515
vn 0.7784 0.5317 -0.3337
vn 0.2373 -0.8288 -0.5067
vn 0.0411 0.9960 -0.0790
vn 0.1939 0.9367 0.2916
vn 0.1963 -0.9442 0.2644
vn 0.2036 0.6365 0.7439
vn 0.2372 0.0015 0.9715
vn 0.2238 -0.2622 0.9387
vn 0.2076 -0.6344 0.7446
vn 0.2245 0.2959 0.9285
vn -0.0121 0.9884 -0.1515
vn -0.0411 0.9960 -0.0790
vn -0.2080 -0.9012 -0.3801
vn -0.1991 -0.9210 -0.3349
vn -0.1730 -0.5897 -0.7889
vn -0.2120 -0.5892 -0.7797
vn -0.3261 -0.5316 -0.7817
vn -0.3152 0.5704 -0.7585
vn -0.2036 0.6365 0.7439
vn -0.2245 0.2959 0.9285
vn -0.2482 0.0370 -0.9680
vn -0.2619 0.0350 -0.9645
vn -0.2617 0.2934 -0.9195
vn -0.2224 0.3060 -0.9257
vn -0.8601 0.1548 -0.4860
vn -0.8296 -0.1576 0.5357
vn -0.8354 0.0010 0.5496
vn -0.8767 0.0173 -0.4807
vn -0.2076 -0.6344 0.7446
vn -0.1963 -0.9442 0.2644
vn -0.8258 0.1803 0.5344
vn -0.8748 -0.1408 -0.4635
vn -0.2594 -0.9630 -0.0731
vn -0.1276 -0.9883 -0.0830
vn -0.7793 0.5986 0.1854
vn -0.8224 0.4765 -0.3108
vn -0.8408 -0.4513 -0.2990
vn -0.8893 -0.4039 -0.2147
vn -0.2372 0.0015 0.9715
vn -0.8044 -0.4061 0.4335
vn -0.8451 0.2530 -0.4710
vn -0.2104 0.8705 -0.4450
vn -0.2726 0.8459 -0.4584
vn -0.0987 0.9945 -0.0345
vn -0.1875 0.9803 -0.0621
vn -0.2348 -0.2861 -0.9290
vn -0.2358 -0.2966 -0.9254
vn -0.2238 -0.2622 0.9387
vn -0.2373 -0.8288 -0.5067
vn -0.2592 -0.7838 -0.5643
vn -0.3900 -0.2464 -0.8872
vn -0.3258 0.5315 -0.7819
vn -0.9010 0.3714 -0.2241
vn -0.7850 -0.5979 0.1625
vn -0.2733 0.5062 -0.8180
vn -0.1968 0.5139 -0.8350
vn -0.2037 0.9680 -0.1464
vn -0.1939 0.9367 0.2916
vn -0.2047 -0.9678 -0.1463
vn -0.8109 0.4060 0.4213
vn -0.8584 -0.2717 -0.4350
vn -0.8230 -0.4756 -0.3107
vn -0.7784 0.5317 -0.3337
g book1_Cube.015_Pages
usemtl Pages
s 1
f 60/1/1 50/2/2 3/3/3 39/4/4
f 50/2/2 43/5/5 47/6/6 3/3/3
f 55/7/7 2/8/8 54/9/9 63/10/10
f 2/8/8 51/11/11 45/12/12 54/9/9
f 3/3/3 1/13/13 41/14/14 39/4/4
f 41/14/14 1/13/13 2/8/8 55/7/7
f 47/6/6 57/15/15 1/13/13 3/3/3
f 1/13/13 57/15/15 51/11/11 2/8/8
f 60/16/1 39/17/4 40/18/16 61/19/17
f 39/17/4 41/20/14 42/21/18 40/18/16
f 41/20/14 55/22/7 71/23/19 42/21/18
f 55/22/7 63/24/10 62/25/20 71/23/19
f 140/26/21 118/27/22 73/28/23 129/29/24
f 129/29/24 73/28/23 126/30/25 122/31/26
f 143/32/27 135/33/28 71/34/19 62/35/20
f 119/36/29 141/37/30 61/38/17 40/39/16
f 134/40/31 144/41/32 133/42/33 72/43/34
f 72/43/34 133/42/33 124/44/35 130/45/36
f 73/28/23 118/27/22 120/46/37 70/47/38
f 120/46/37 134/40/31 72/43/34 70/47/38
f 135/33/28 121/48/39 42/49/18 71/34/19
f 126/30/25 73/28/23 70/47/38 137/50/40
f 70/47/38 72/43/34 130/45/36 137/50/40
f 121/48/39 119/36/29 40/39/16 42/49/18
f 140/51/21 141/52/30 119/53/29 118/54/22
f 118/54/22 119/53/29 121/55/39 120/56/37
f 120/56/37 121/55/39 135/57/28 134/58/31
f 134/58/31 135/57/28 143/59/27 144/60/32
g book1_Cube.015_cover1
usemtl cover1
f 19/61/41 12/62/42 44/63/43 49/64/44
f 31/65/45 20/66/46 52/67/47 56/68/48
f 21/69/49 30/70/50 26/71/51 28/72/52
f 26/71/51 30/70/50 17/73/53 23/74/54
f 32/75/55 19/76/41 49/77/44 59/78/56
f 6/79/57 18/80/58 34/81/59 9/82/60
f 29/83/61 14/84/62 21/69/49 28/72/52
f 25/85/63 37/86/64 64/87/65 53/88/66
f 12/62/42 16/89/67 48/90/68 44/63/43
f 16/89/67 31/65/45 56/68/48 48/90/68
f 24/91/69 14/84/62 29/83/61 4/92/70
f 20/66/46 15/93/71 46/94/72 52/67/47
f 22/95/73 13/96/74 18/80/58 6/79/57
f 23/74/54 17/73/53 13/96/74 22/95/73
f 15/93/71 25/97/63 53/98/66 46/94/72
f 7/99/75 78/100/76 8/101/77
f 9/82/60 10/102/78 11/103/79
f 32/104/55 33/105/80 117/106/81 34/81/59
f 35/107/82 36/108/83 37/86/64 38/109/84
f 58/110/85 59/111/56 60/112/1 61/113/17
f 146/114/86 62/115/20 63/116/10 64/87/65
f 21/117/49 14/118/62 15/93/71 20/66/46
f 14/118/62 24/119/69 25/97/63 15/93/71
f 19/120/41 32/104/55 34/81/59 18/80/58
f 9/82/60 34/81/59 117/106/81 10/102/78
f 38/121/84 8/101/77 78/100/76 35/122/82
f 17/123/53 30/124/50 31/65/45 16/89/67
f 13/125/74 17/123/53 16/89/67 12/62/42
f 11/103/79 65/126/87 6/79/57 9/82/60
f 5/127/88 7/99/75 8/101/77 4/92/70
f 18/128/58 13/125/74 12/62/42 19/61/41
f 65/129/87 66/130/89 22/131/73 6/132/57
f 58/133/85 33/134/80 32/75/55 59/78/56
f 68/135/90 27/136/91 28/137/52 26/138/51
f 27/136/91 69/139/92 29/140/61 28/137/52
f 30/124/50 21/117/49 20/66/46 31/65/45
f 66/130/89 67/141/93 23/142/54 22/131/73
f 67/141/93 68/135/90 26/138/51 23/142/54
f 69/139/92 5/143/88 4/144/70 29/140/61
f 64/87/65 37/86/64 36/108/83 146/114/86
f 24/91/69 38/121/84 37/145/64 25/146/63
f 52/147/47 46/148/72 45/149/12 51/150/11
f 46/94/72 53/98/66 54/151/9 45/152/12
f 50/153/2 60/154/1 59/155/56 49/156/44
f 48/90/68 56/68/48 57/157/15 47/158/6
f 44/63/43 48/90/68 47/158/6 43/159/5
f 49/64/44 44/63/43 43/159/5 50/160/2
f 56/68/48 52/67/47 51/161/11 57/157/15
f 53/88/66 64/87/65 63/116/10 54/162/9
f 38/121/84 24/91/69 4/92/70 8/101/77
f 114/163/94 142/164/95 146/114/86 36/108/83
f 92/165/96 128/166/97 123/167/98 85/168/99
f 80/169/100 113/170/101 35/171/82 78/172/76
f 66/173/89 95/174/102 97/175/103 67/176/93
f 108/177/104 136/178/105 131/179/106 93/180/107
f 94/181/108 104/182/109 101/183/110 107/184/111
f 69/185/92 105/186/112 75/187/113 5/188/88
f 101/183/110 98/189/114 90/190/115 107/184/111
f 109/191/116 139/192/117 128/193/97 92/194/96
f 77/195/118 82/196/119 112/197/120 91/198/121
f 67/176/93 97/175/103 102/199/122 68/200/90
f 106/201/123 104/182/109 94/181/108 87/202/124
f 100/203/125 132/204/126 145/205/127 115/206/128
f 85/168/99 123/167/98 127/207/129 89/208/130
f 89/208/130 127/207/129 136/178/105 108/177/104
f 27/209/91 103/210/131 105/186/112 69/185/92
f 68/200/90 102/199/122 103/210/131 27/209/91
f 33/134/80 58/133/85 138/211/132 110/212/133
f 111/213/134 83/214/135 10/215/78 117/216/81
f 99/217/136 74/218/137 106/201/123 87/202/124
f 93/180/107 131/179/106 125/219/138 88/220/139
f 11/221/79 84/222/140 76/223/141 65/224/87
f 79/225/142 7/226/75 5/227/88 75/228/113
f 96/229/143 77/195/118 91/198/121 86/230/144
f 98/189/114 96/229/143 86/230/144 90/190/115
f 65/231/87 76/232/141 95/174/102 66/173/89
f 88/220/139 125/219/138 132/233/126 100/234/125
f 79/235/142 81/236/145 80/237/100
f 82/196/119 84/238/140 83/239/135
f 109/240/116 112/197/120 111/241/134 110/242/133
f 113/243/101 116/244/146 115/206/128 114/163/94
f 138/245/132 141/246/30 140/247/21 139/248/117
f 142/164/95 145/205/127 144/249/32 143/250/27
f 94/251/108 93/180/107 88/220/139 87/252/124
f 87/252/124 88/220/139 100/234/125 99/253/136
f 92/254/96 91/198/121 112/197/120 109/240/116
f 82/196/119 83/239/135 111/241/134 112/197/120
f 78/172/76 7/255/75 79/256/142 80/169/100
f 83/257/135 84/258/140 11/259/79 10/260/78
f 116/261/146 113/262/101 80/237/100 81/236/145
f 90/263/115 89/208/130 108/177/104 107/264/111
f 86/265/144 85/168/99 89/208/130 90/263/115
f 84/238/140 82/196/119 77/195/118 76/266/141
f 75/267/113 74/218/137 81/236/145 79/235/142
f 91/268/121 92/165/96 85/168/99 86/265/144
f 76/269/141 77/270/118 96/271/143 95/272/102
f 138/211/132 139/192/117 109/191/116 110/212/133
f 102/273/122 101/274/110 104/275/109 103/276/131
f 103/276/131 104/275/109 106/277/123 105/278/112
f 107/264/111 108/177/104 93/180/107 94/251/108
f 95/272/102 96/271/143 98/279/114 97/280/103
f 97/280/103 98/279/114 101/274/110 102/273/122
f 105/278/112 106/277/123 74/281/137 75/282/113
f 145/205/127 142/164/95 114/163/94 115/206/128
f 99/217/136 100/283/125 115/284/128 116/261/146
f 110/285/133 111/286/134 117/287/81 33/288/80
f 113/243/101 114/163/94 36/108/83 35/107/82
f 131/179/106 130/289/36 124/290/35 125/219/138
f 125/219/138 124/290/35 133/291/33 132/233/126
f 129/292/24 128/293/97 139/294/117 140/295/21
f 127/207/129 126/296/25 137/297/40 136/178/105
f 123/167/98 122/298/26 126/296/25 127/207/129
f 128/166/97 129/299/24 122/298/26 123/167/98
f 136/178/105 137/297/40 130/289/36 131/179/106
f 132/204/126 133/300/33 144/249/32 145/205/127
f 141/246/30 138/245/132 58/110/85 61/113/17
f 142/164/95 143/250/27 62/115/20 146/114/86
f 116/261/146 81/236/145 74/218/137 99/217/136
