# Blender v3.0.1 OBJ File: 'untitledProps.blend'
# www.blender.org
mtllib book13.mtl
o book13_Mesh.016
v 0.337101 -0.436511 0.097646
v 0.348800 0.428447 -0.097633
v 0.348800 -0.436511 0.097646
v 0.338603 -0.430688 -0.032540
v 0.338426 -0.428432 0.079301
v 0.338603 -0.430688 0.032553
v 0.337349 0.428814 0.032553
v 0.337349 0.428814 -0.032540
v -0.292890 -0.430688 -0.032540
v -0.292890 -0.430688 0.032553
v -0.294145 0.428814 0.032553
v -0.294145 0.428815 -0.032540
v -0.270412 -0.428430 -0.079325
v 0.338426 -0.428430 -0.079325
v 0.337171 0.428550 0.079301
v 0.337171 0.428550 -0.079326
v -0.270430 -0.428432 0.079301
v -0.271684 0.428550 0.079301
v -0.271667 0.428550 -0.079325
v -0.289483 -0.437397 0.079301
v 0.338426 -0.437395 -0.079325
v 0.338426 -0.437397 0.079301
v -0.280128 -0.436511 0.097646
v 0.337102 -0.436511 -0.097633
v -0.292890 -0.439653 -0.032540
v -0.292890 -0.439653 0.032553
v -0.270430 -0.437397 0.079301
v -0.270412 -0.437395 -0.079325
v 0.337171 0.437415 0.079301
v 0.337171 0.437415 -0.079326
v -0.280128 0.437312 0.097646
v -0.271684 0.437416 0.079301
v -0.294145 0.437680 0.032553
v -0.294145 0.437680 -0.032540
v -0.271666 0.437416 -0.079325
v 0.350124 -0.428430 -0.079325
v 0.350124 -0.428432 0.079301
v 0.348870 0.428550 0.079301
v 0.348870 0.428550 -0.079326
v 0.348800 -0.427547 0.097646
v 0.348800 0.428447 0.097646
v 0.348800 -0.427547 -0.097633
v 0.350124 -0.437395 -0.079325
v 0.350124 -0.437397 0.079301
v 0.348800 -0.436511 -0.097633
v 0.348870 0.437415 0.079301
v 0.348870 0.437415 -0.079326
v 0.348800 0.437312 0.097646
v 0.348800 0.437312 -0.097633
v -0.289464 -0.428430 -0.079325
v -0.313321 -0.430688 -0.032540
v -0.289483 -0.428432 0.079301
v -0.313321 -0.430688 0.032553
v -0.289483 0.428550 0.079301
v -0.313321 0.428814 0.032553
v -0.289464 0.428550 -0.079325
v -0.313321 0.428814 -0.032540
v -0.280128 -0.427547 0.097646
v 0.337101 -0.427547 0.097646
v -0.280128 0.428447 0.097646
v 0.337101 0.428447 0.097646
v 0.337102 -0.427547 -0.097633
v -0.280128 -0.427547 -0.097633
v 0.337102 0.428447 -0.097633
v -0.280128 0.428447 -0.097633
v -0.262870 -0.427547 0.097646
v -0.262870 0.428447 0.097646
v -0.262870 0.428447 -0.097633
v -0.262870 -0.427547 -0.097633
v -0.289464 -0.437395 -0.079325
v -0.313321 -0.439654 -0.032540
v -0.313321 -0.439654 0.032553
v -0.280128 -0.436512 -0.097633
v -0.262870 -0.436512 0.097646
v -0.262870 -0.436512 -0.097633
v -0.289483 0.437416 0.079301
v -0.313321 0.437680 0.032553
v -0.289464 0.437416 -0.079325
v -0.313321 0.437680 -0.032540
v 0.337101 0.437312 0.097646
v 0.337102 0.437312 -0.097633
v -0.280128 0.437312 -0.097633
v -0.262870 0.437312 0.097646
v -0.262870 0.437312 -0.097633
vt 0.486531 0.371826
vt 0.011886 0.371826
vt 0.011886 0.365513
vt 0.486531 0.365513
vt 0.010803 0.342200
vt 0.486139 0.342200
vt 0.486139 0.348569
vt 0.010804 0.348569
vt 0.007048 0.371826
vt 0.007048 0.365513
vt 0.005923 0.342200
vt 0.005923 0.348569
vt 0.491315 0.371826
vt 0.491315 0.365513
vt 0.490966 0.342200
vt 0.490966 0.348569
vt 0.480057 0.840008
vt 0.943282 0.841488
vt 0.943282 0.883577
vt 0.480057 0.881900
vt 0.484304 0.797908
vt 0.938662 0.797908
vt 0.938662 0.840465
vt 0.484304 0.838567
vt 0.937228 0.920994
vt 0.483320 0.920994
vt 0.483320 0.880755
vt 0.937228 0.881862
vt 0.480057 0.797826
vt 0.943282 0.797826
vt 0.943282 0.925308
vt 0.480057 0.925308
vt 0.938662 0.882729
vt 0.484304 0.881723
vt 0.483320 0.840173
vt 0.937228 0.841160
vt 0.938662 0.926522
vt 0.484304 0.926522
vt 0.483320 0.798072
vt 0.937228 0.798072
vt 0.070090 0.337341
vt 0.409052 0.336243
vt 0.408192 0.339097
vt 0.070134 0.340065
vt 0.409047 0.342396
vt 0.070089 0.341302
vt 0.070130 0.338582
vt 0.408190 0.339547
vt 0.343729 0.337706
vt 0.353331 0.337530
vt 0.353922 0.338832
vt 0.343318 0.339119
vt 0.335128 0.336177
vt 0.334313 0.337430
vt 0.361523 0.335742
vt 0.362520 0.336944
vt 0.408190 0.341632
vt 0.074869 0.342737
vt 0.074863 0.335911
vt 0.408186 0.337015
vt 0.353271 0.341678
vt 0.344245 0.341789
vt 0.336099 0.339585
vt 0.361157 0.339094
vt 0.365368 0.336400
vt 0.364133 0.338348
vt 0.331299 0.336981
vt 0.332916 0.338934
vt 0.070089 0.336691
vt 0.408500 0.335707
vt 0.407705 0.338581
vt 0.070129 0.339410
vt 0.407549 0.342169
vt 0.069090 0.341187
vt 0.069126 0.338470
vt 0.406755 0.339300
vt 0.162450 0.337408
vt 0.172997 0.337399
vt 0.173591 0.338817
vt 0.161801 0.338937
vt 0.152996 0.335704
vt 0.151891 0.337039
vt 0.182281 0.335717
vt 0.183371 0.337027
vt 0.408321 0.341073
vt 0.075650 0.342071
vt 0.074647 0.335809
vt 0.407372 0.336809
vt 0.172537 0.341754
vt 0.162662 0.341701
vt 0.153705 0.339247
vt 0.148471 0.336384
vt 0.150230 0.338525
vt 0.181651 0.339167
vt 0.186661 0.336384
vt 0.184993 0.338460
vt 0.066648 0.335770
vt 0.414815 0.335977
vt 0.414767 0.338775
vt 0.066600 0.338567
vt 0.414767 0.341857
vt 0.066657 0.342509
vt 0.066600 0.339712
vt 0.414709 0.339060
vt 0.413012 0.339714
vt 0.416094 0.341302
vt 0.416105 0.337341
vt 0.413017 0.338931
vt 0.415021 0.340905
vt 0.415016 0.337743
vt 0.411894 0.339438
vt 0.414806 0.341186
vt 0.415771 0.336691
vt 0.412855 0.338442
vt 0.414174 0.337445
vt 0.415136 0.340436
vt 0.414754 0.341567
vt 0.067235 0.341362
vt 0.066971 0.336917
vt 0.414656 0.336266
vt 0.419881 0.339378
vt 0.419894 0.339273
vt 0.419584 0.338578
vt 0.418616 0.339297
vt 0.512378 0.399087
vt 0.991517 0.399087
vt 0.991517 0.430364
vt 0.512378 0.430509
vt 0.011886 0.706876
vt 0.011886 0.697563
vt 0.486531 0.697563
vt 0.486531 0.706876
vt 0.010804 0.015553
vt 0.486139 0.015553
vt 0.512378 0.379540
vt 0.991517 0.379540
vt 0.991517 0.462228
vt 0.512378 0.462372
vt 0.512378 0.364454
vt 0.991517 0.364314
vt 0.991517 0.471010
vt 0.512378 0.471155
vt 0.010804 0.006157
vt 0.486139 0.006157
vt 0.507369 0.430512
vt 0.507369 0.399087
vt 0.007048 0.706876
vt 0.007048 0.697563
vt 0.005923 0.015553
vt 0.507369 0.462376
vt 0.507369 0.379540
vt 0.507369 0.364458
vt 0.507369 0.471159
vt 0.005923 0.006157
vt 0.996471 0.399087
vt 0.996471 0.430360
vt 0.491315 0.697563
vt 0.490966 0.015553
vt 0.490966 0.006157
vt 0.996471 0.379540
vt 0.996471 0.462224
vt 0.996471 0.364309
vt 0.996471 0.471006
vt 0.491315 0.706876
vn 0.0000 0.0000 1.0000
vn 0.9979 0.0343 0.0551
vn 0.9998 0.0005 0.0210
vn -0.0000 0.0000 -1.0000
vn 0.9998 0.0004 -0.0211
vn 0.9982 -0.0252 -0.0550
vn -0.2760 -0.0417 0.9603
vn 0.2009 0.1735 0.9641
vn 0.4065 -0.9029 -0.1396
vn 0.2020 0.1742 -0.9638
vn -0.1714 0.9850 0.0206
vn -0.1667 0.2006 0.9654
vn 0.6179 0.7408 -0.2633
vn -0.1663 0.2000 -0.9656
vn 1.0000 0.0015 -0.0019
vn 1.0000 0.0015 0.0019
vn 0.5487 0.2058 0.8103
vn -0.5112 -0.2253 0.8294
vn -0.0000 -0.9997 -0.0241
vn 0.0669 -0.9977 -0.0047
vn 0.5239 -0.2104 -0.8254
vn -0.3702 -0.1688 -0.9135
vn 0.0000 1.0000 0.0028
vn 0.0612 0.9981 -0.0117
vn -0.3704 -0.1686 0.9135
vn -0.5112 -0.2253 -0.8294
vn -0.0000 -0.9997 0.0241
vn 0.0669 -0.9977 0.0046
vn 0.0000 1.0000 -0.0028
vn 0.0612 0.9981 0.0116
vn 0.5487 0.2058 -0.8103
vn 0.5239 -0.2104 0.8254
vn 0.9757 0.0000 -0.2190
vn 0.9757 0.0000 0.2190
vn 0.9014 0.0000 0.4331
vn 0.9014 0.0000 -0.4331
vn 0.0000 -0.9988 0.0482
vn 0.2625 -0.0375 0.9642
vn 0.0000 -0.9988 -0.0482
vn -0.6252 -0.2883 -0.7252
vn 0.0000 -0.9996 -0.0271
vn 0.0000 -0.9996 0.0271
vn -0.0567 -0.9978 0.0332
vn -0.0567 -0.9978 -0.0332
vn -0.7834 -0.0118 -0.6213
vn -0.8862 0.0004 0.4632
vn -0.5289 0.0988 0.8429
vn -0.5289 0.0988 -0.8429
vn 0.9751 -0.0000 0.2217
vn 0.9751 -0.0000 -0.2217
vn 0.0000 1.0000 -0.0057
vn 0.1924 0.9810 -0.0245
vn 0.0000 1.0000 0.0057
vn 0.3085 0.9496 0.0558
vn -0.0000 1.0000 0.0056
vn 0.0000 1.0000 0.0032
vn -0.0000 1.0000 -0.0032
vn -0.0623 0.9979 -0.0173
vn -0.0623 0.9979 0.0173
vn -0.0604 0.9934 -0.0971
vn -0.5209 -0.0978 0.8480
vn -0.2121 0.9387 0.2718
vn -0.5209 -0.0978 -0.8480
vn 0.0000 1.0000 -0.0056
vn 0.9985 0.0004 0.0555
vn 0.9998 0.0004 0.0208
vn 0.9998 0.0004 -0.0209
vn 0.9985 0.0004 -0.0556
vn 0.9974 -0.0000 -0.0721
vn 0.9974 -0.0000 0.0720
vn 1.0000 0.0000 -0.0038
vn 1.0000 0.0000 0.0038
vn -0.9723 -0.0000 0.2336
vn -0.9723 0.0000 -0.2336
vn -0.5224 -0.0000 0.8527
vn -0.8909 -0.0000 0.4543
vn -0.8909 0.0000 -0.4543
vn -0.5224 0.0000 -0.8527
g book13_Mesh.016_book13
usemtl book13
s 1
f 61/1/1 59/2/1 40/3/2 41/4/3
f 62/5/4 64/6/4 2/7/5 42/8/6
f 59/2/1 1/9/7 3/10/8 40/3/2
f 24/11/9 62/5/4 42/8/6 45/12/10
f 80/13/11 61/1/1 41/4/3 48/14/12
f 64/6/4 81/15/13 49/16/14 2/7/5
f 4/17/15 8/18/15 7/19/16 6/20/16
f 13/21/17 14/22/18 4/23/19 9/24/20
f 18/25/21 15/26/22 7/27/23 11/28/24
f 14/29/18 16/30/25 8/18/15 4/17/15
f 6/20/16 7/19/16 15/31/22 5/32/26
f 4/23/19 6/33/27 10/34/28 9/24/20
f 11/28/24 7/27/23 8/35/29 12/36/30
f 10/34/28 6/33/27 5/37/26 17/38/31
f 12/36/30 8/35/29 16/39/25 19/40/32
f 17/41/31 5/42/26 22/43/4 27/44/4
f 14/45/18 13/46/17 28/47/1 21/48/1
f 9/49/20 10/50/28 26/51/33 25/52/34
f 13/53/17 9/49/20 25/52/34 28/54/35
f 10/50/28 17/55/31 27/56/36 26/51/33
f 22/43/37 1/57/7 74/58/38 27/44/37
f 21/48/39 28/47/39 75/59/40 24/60/9
f 25/52/41 26/51/42 72/61/43 71/62/44
f 28/54/39 25/52/41 71/62/44 70/63/45
f 26/51/42 27/56/37 20/64/46 72/61/43
f 27/56/37 74/65/38 23/66/47 20/64/46
f 75/67/40 28/54/39 70/63/45 73/68/48
f 19/69/32 16/70/25 30/71/1 35/72/1
f 15/73/22 18/74/21 32/75/4 29/76/4
f 11/77/24 12/78/30 34/79/49 33/80/50
f 18/81/21 11/77/24 33/80/50 32/82/36
f 12/78/30 19/83/32 35/84/35 34/79/49
f 30/71/51 81/85/13 84/86/52 35/72/51
f 32/75/53 83/87/54 80/88/11 29/76/55
f 33/80/56 34/79/57 79/89/58 77/90/59
f 32/82/53 33/80/56 77/90/59 76/91/60
f 83/92/54 32/82/53 76/91/60 31/93/61
f 34/79/57 35/84/51 78/94/62 79/89/58
f 35/84/51 84/95/52 82/96/63 78/94/62
f 5/97/26 15/98/22 38/99/4 37/100/4
f 16/101/25 14/102/18 36/103/1 39/104/1
f 14/45/18 21/48/1 43/105/1 36/106/1
f 22/43/4 5/42/26 37/107/4 44/108/4
f 1/57/7 22/43/37 44/108/37 3/109/8
f 21/48/39 24/60/9 45/110/10 43/105/39
f 15/73/22 29/76/4 46/111/4 38/112/4
f 30/71/1 16/70/25 39/113/1 47/114/1
f 29/76/55 80/88/11 48/115/12 46/111/55
f 81/85/13 30/71/51 47/114/64 49/116/14
f 41/117/3 40/118/2 37/100/65 38/99/66
f 39/104/67 36/103/68 42/119/6 2/120/5
f 36/106/68 43/105/69 45/110/10 42/121/6
f 40/122/2 3/109/8 44/108/70 37/107/65
f 47/114/71 39/113/67 2/123/5 49/116/14
f 48/115/12 41/124/3 38/112/66 46/111/72
f 53/125/73 55/126/73 57/127/74 51/128/74
f 58/129/75 66/130/1 67/131/1 60/132/75
f 62/5/4 69/133/4 68/134/4 64/6/4
f 52/135/76 54/136/76 55/126/73 53/125/73
f 51/128/74 57/127/74 56/137/77 50/138/77
f 58/139/75 60/140/75 54/136/76 52/135/76
f 50/138/77 56/137/77 65/141/78 63/142/78
f 59/2/1 61/1/1 67/131/1 66/130/1
f 63/143/78 65/144/78 68/134/4 69/133/4
f 53/125/73 51/128/74 71/145/44 72/146/43
f 66/130/1 58/129/75 23/147/47 74/148/38
f 59/2/1 66/130/1 74/148/38 1/9/7
f 69/133/4 62/5/4 24/11/9 75/149/40
f 51/128/74 50/138/77 70/150/45 71/145/44
f 52/135/76 53/125/73 72/146/43 20/151/46
f 58/139/75 52/135/76 20/151/46 23/152/47
f 50/138/77 63/142/78 73/153/48 70/150/45
f 63/143/78 69/133/4 75/149/40 73/154/48
f 57/127/74 55/126/73 77/155/59 79/156/58
f 67/131/1 61/1/1 80/13/11 83/157/54
f 64/6/4 68/134/4 84/158/52 81/15/13
f 68/134/4 65/144/78 82/159/63 84/158/52
f 55/126/73 54/136/76 76/160/60 77/155/59
f 56/137/77 57/127/74 79/156/58 78/161/62
f 54/136/76 60/140/75 31/162/61 76/160/60
f 65/141/78 56/137/77 78/161/62 82/163/63
f 60/132/75 67/131/1 83/157/54 31/164/61
