# Blender v3.0.1 OBJ File: 'untitledProps.blend'
# www.blender.org
mtllib book8.mtl
o book8_mesh_Cube.046_9536bookThick2048_(5).001
v 0.380654 0.078082 -0.317738
v 0.380642 0.079564 0.322616
v 0.380610 0.089452 0.322608
v 0.380622 0.087970 -0.317746
v 0.380622 0.087970 -0.317746
v 0.380610 0.089452 0.322608
v -0.380610 0.089452 0.322608
v -0.380598 0.087970 -0.317746
v -0.380629 -0.081571 -0.317754
v -0.380642 -0.080089 0.322600
v -0.380610 -0.089452 0.322608
v -0.380598 -0.090934 -0.317746
v -0.380598 -0.090934 -0.317746
v -0.380610 -0.089452 0.322608
v 0.380610 -0.089452 0.322608
v 0.380622 -0.090934 -0.317746
v 0.380642 0.079564 0.322616
v -0.380583 0.075098 0.322616
v -0.380610 0.089452 0.322608
v 0.380610 0.089452 0.322608
v -0.382739 0.066069 -0.331249
v 0.378485 0.070535 -0.331249
v 0.379584 0.084070 -0.325722
v -0.381636 0.084251 -0.325722
v -0.380598 0.087970 -0.317746
v 0.380622 0.087970 -0.317746
v -0.381628 -0.085315 -0.325722
v 0.379593 -0.085495 -0.325722
v 0.378414 -0.066049 -0.331249
v -0.382811 -0.070515 -0.331249
v 0.380622 -0.090934 -0.317746
v -0.380598 -0.090934 -0.317746
v -0.382811 -0.070515 -0.331249
v 0.378414 -0.066049 -0.331249
v 0.378485 0.070535 -0.331249
v -0.382739 0.066069 -0.331249
v 0.380610 -0.089452 0.322608
v -0.380610 -0.089452 0.322608
v -0.380642 -0.080089 0.322600
v 0.380583 -0.075623 0.322600
v -0.380598 0.087970 -0.317746
v -0.380610 0.089452 0.322608
v -0.380583 0.075098 0.322616
v -0.380571 0.073616 -0.317738
v 0.380622 -0.090934 -0.317746
v 0.380610 -0.089452 0.322608
v 0.380583 -0.075623 0.322600
v 0.380595 -0.077105 -0.317754
v 0.378414 -0.066049 -0.331249
v 0.380595 -0.077105 -0.317754
v 0.380654 0.078082 -0.317738
v 0.378485 0.070535 -0.331249
v 0.379593 -0.085495 -0.325722
v 0.380622 -0.090934 -0.317746
v -0.382739 0.066069 -0.331249
v -0.380571 0.073616 -0.317738
v -0.380629 -0.081571 -0.317754
v -0.382811 -0.070515 -0.331249
v -0.381636 0.084251 -0.325722
v -0.380598 0.087970 -0.317746
v -0.382811 -0.070515 -0.331249
v -0.380598 -0.090934 -0.317746
v -0.381628 -0.085315 -0.325722
v 0.378485 0.070535 -0.331249
v 0.380654 0.078082 -0.317738
v 0.380622 0.087970 -0.317746
v 0.379584 0.084070 -0.325722
v 0.380595 -0.077105 -0.317754
v 0.371755 -0.075554 -0.310317
v 0.371812 0.076461 -0.310301
v 0.380654 0.078082 -0.317738
v 0.380654 0.078082 -0.317738
v 0.371812 0.076461 -0.310301
v 0.371800 0.077908 0.315179
v 0.380642 0.079564 0.322616
v -0.380571 0.073616 -0.317738
v -0.371731 0.072098 -0.310301
v -0.371788 -0.079916 -0.310317
v -0.380629 -0.081571 -0.317754
v -0.380629 -0.081571 -0.317754
v -0.371788 -0.079916 -0.310317
v -0.371800 -0.078468 0.315162
v -0.380642 -0.080089 0.322600
v 0.380642 0.079564 0.322616
v 0.371800 0.077908 0.315179
v -0.371743 0.073546 0.315179
v -0.380583 0.075098 0.322616
v 0.380583 -0.075623 0.322600
v 0.371743 -0.074106 0.315162
v 0.371755 -0.075554 -0.310317
v 0.380595 -0.077105 -0.317754
v -0.380583 0.075098 0.322616
v -0.371743 0.073546 0.315179
v -0.371731 0.072098 -0.310301
v -0.380571 0.073616 -0.317738
v -0.380642 -0.080089 0.322600
v -0.371800 -0.078468 0.315162
v 0.371743 -0.074106 0.315162
v 0.380583 -0.075623 0.322600
v 0.371743 -0.074106 0.315162
v 0.371800 0.077908 0.315179
v 0.371812 0.076461 -0.310301
v 0.371755 -0.075554 -0.310317
v -0.371743 0.073546 0.315179
v -0.371800 -0.078468 0.315162
v -0.371788 -0.079916 -0.310317
v -0.371731 0.072098 -0.310301
v -0.371800 -0.078468 0.315162
v -0.371743 0.073546 0.315179
v 0.371800 0.077908 0.315179
v 0.371743 -0.074106 0.315162
vt 0.369517 0.670600
vt 0.334165 1.000000
vt 0.369517 0.999707
vt 0.334165 0.670893
vt 0.298813 0.995567
vt 0.334165 0.666749
vt 0.298813 0.666456
vt 0.334165 0.995860
vt 0.591587 0.331810
vt 0.627053 0.000000
vt 0.583358 0.000000
vt 0.626941 0.331805
vt 0.292819 0.000292
vt 0.257352 0.332102
vt 0.292706 0.332098
vt 0.249123 0.000292
vt 0.000000 0.993084
vt 0.043694 0.664335
vt 0.000000 0.663973
vt 0.043694 0.993446
vt 0.668330 0.668121
vt 0.624636 0.997590
vt 0.668330 0.997228
vt 0.624636 0.668483
vt 0.296700 0.332102
vt 0.292819 0.081792
vt 0.292819 0.329225
vt 0.296700 0.078785
vt 0.000000 0.663910
vt 0.327793 0.660118
vt 0.003827 0.660056
vt 0.331670 0.663973
vt 0.043694 0.993446
vt 0.295756 0.991583
vt 0.046563 0.989512
vt 0.298813 0.995567
vt 0.668290 0.664050
vt 0.996133 0.660133
vt 0.672167 0.660195
vt 0.999960 0.663986
vt 0.331670 0.663973
vt 0.327793 0.336018
vt 0.327793 0.660118
vt 0.331670 0.332166
vt 0.999960 0.332179
vt 0.672167 0.336095
vt 0.996133 0.336033
vt 0.668290 0.332242
vt 0.331670 0.332166
vt 0.003827 0.335956
vt 0.327793 0.336018
vt 0.000000 0.332102
vt 0.999960 0.663986
vt 0.996133 0.336033
vt 0.996133 0.660133
vt 0.999960 0.332179
vt 0.668330 0.668189
vt 1.000000 1.000000
vt 1.000000 0.668194
vt 0.668330 0.999995
vt 0.668290 0.000373
vt 0.999960 0.332174
vt 0.999960 0.000368
vt 0.668290 0.332179
vt 0.627304 0.664018
vt 0.660967 0.331815
vt 0.635644 0.332211
vt 0.661304 0.663620
vt 0.668290 0.663616
vt 0.668290 0.331810
vt 0.344618 0.663617
vt 0.380556 0.332242
vt 0.344281 0.331811
vt 0.372216 0.664050
vt 0.334165 0.331810
vt 0.334165 0.663616
vt 0.481890 0.664050
vt 0.525970 0.332211
vt 0.483285 0.332242
vt 0.524575 0.664018
vt 0.621817 0.664050
vt 0.369517 0.670600
vt 0.624636 0.668483
vt 0.366699 0.666167
vt 0.658161 0.666214
vt 0.668330 0.668121
vt 0.040875 0.997879
vt 0.298813 0.995567
vt 0.043694 0.993446
vt 0.295994 1.000000
vt 0.006935 0.995133
vt 0.000000 0.993084
vt 0.295994 1.000000
vt 0.334165 0.995860
vt 0.323658 0.997764
vt 0.366699 0.666167
vt 0.334165 0.670893
vt 0.369517 0.670600
vt 0.341438 0.668842
vt 0.583358 0.329742
vt 0.334165 0.010348
vt 0.334165 0.331810
vt 0.583358 0.008279
vt 0.046563 0.668045
vt 0.295756 0.991583
vt 0.295756 0.670117
vt 0.046563 0.989512
vt 0.249123 0.332102
vt 0.000000 0.001696
vt 0.000000 0.325897
vt 0.249123 0.007901
vn 1.0000 0.0032 0.0000
vn -1.0000 -0.0033 -0.0000
vn -0.0000 0.0006 1.0000
vn 0.0000 0.0008 1.0000
vn 0.0000 0.0009 1.0000
vn -1.0000 -0.0019 -0.0000
vn 1.0000 0.0020 0.0000
vn 0.6437 -0.0003 0.7653
vn 0.1822 -0.9833 0.0023
vn -0.6438 0.0002 0.7652
vn -0.6437 0.0002 0.7653
vn -0.1822 0.9833 -0.0023
vn 0.0057 -0.9775 0.2108
vn 0.1710 0.9853 -0.0023
vn -0.1710 -0.9853 0.0023
vn -0.0057 0.9784 0.2064
vn 0.6111 0.6828 -0.4005
vn -0.5770 0.5764 0.5786
vn 0.5767 0.5767 0.5786
vn -0.6101 0.6915 -0.3868
vn -0.5966 -0.6662 -0.4474
vn 0.5780 -0.5780 0.5761
vn -0.5775 -0.5784 0.5761
vn 0.6019 -0.6577 -0.4529
vn -0.7450 0.2004 -0.6363
vn 0.6388 0.4863 -0.5962
vn 0.6417 0.2134 -0.7367
vn -0.7373 0.4844 -0.4709
vn -0.5967 0.7981 0.0837
vn 0.6238 0.7809 0.0318
vn -0.7349 -0.4565 -0.5014
vn 0.6477 -0.1646 -0.7439
vn 0.6689 -0.3977 -0.6280
vn -0.7435 -0.2227 -0.6306
vn 0.6169 -0.7866 -0.0258
vn -0.5804 -0.8142 0.0140
vn -0.7427 -0.0298 -0.6690
vn 0.6443 0.0287 -0.7642
vn 0.6484 -0.0341 -0.7605
vn -0.7444 0.0416 -0.6664
vn 0.9876 0.0035 -0.1567
vn 0.9873 -0.0002 -0.1588
vn 0.9876 0.0056 -0.1568
vn 0.9873 -0.0003 -0.1588
vn 0.9898 0.0085 -0.1425
vn 0.9906 -0.0005 -0.1366
vn -0.9875 0.0035 0.1578
vn -0.9873 0.0002 0.1591
vn -0.9877 0.0037 0.1563
vn -0.9873 0.0003 0.1591
vn -0.9890 0.0021 0.1477
vn -0.9899 -0.0016 0.1416
vn -0.9914 -0.0217 0.1293
vn -0.9901 -0.0167 0.1396
vn -0.9874 -0.0018 0.1584
vn -0.9921 -0.0254 0.1230
vn 0.9904 -0.0153 -0.1376
vn 0.9891 -0.0071 -0.1471
vn 0.9893 -0.0050 -0.1459
vn 0.9910 -0.0194 -0.1326
vn 1.0000 -0.0004 0.0000
vn -1.0000 0.0004 -0.0000
vn 0.0000 -0.0001 1.0000
g book8_mesh_Cube.046_9536bookThick2048_(5).001_book_var2
usemtl book_var2
s off
f 1/1/1 3/2/1 2/3/1
f 1/1/1 4/4/1 3/2/1
f 9/5/2 11/6/2 10/7/2
f 9/5/2 12/8/2 11/6/2
f 17/9/3 19/10/3 18/11/3
f 17/9/4 20/12/4 19/10/4
f 37/13/5 39/14/5 38/15/5
f 37/13/3 40/16/3 39/14/3
f 41/17/6 43/18/6 42/19/6
f 41/17/6 44/20/6 43/18/6
f 45/21/7 47/22/7 46/23/7
f 45/21/7 48/24/7 47/22/7
f 68/25/8 70/26/8 69/27/8
f 68/25/8 71/28/8 70/26/8
f 72/29/9 74/30/9 73/31/9
f 72/29/9 75/32/9 74/30/9
f 76/33/10 78/34/10 77/35/10
f 76/33/11 79/36/11 78/34/11
f 80/37/12 82/38/12 81/39/12
f 80/37/12 83/40/12 82/38/12
f 84/41/13 86/42/13 85/43/13
f 84/41/13 87/44/13 86/42/13
f 88/45/14 90/46/14 89/47/14
f 88/45/14 91/48/14 90/46/14
f 92/49/15 94/50/15 93/51/15
f 92/49/15 95/52/15 94/50/15
f 96/53/16 98/54/16 97/55/16
f 96/53/16 99/56/16 98/54/16
s 1
f 5/57/17 7/58/18 6/59/19
f 5/57/17 8/60/20 7/58/18
f 13/61/21 15/62/22 14/63/23
f 13/61/21 16/64/24 15/62/22
f 21/65/25 23/66/26 22/67/27
f 21/65/25 24/68/28 23/66/26
f 23/66/26 24/68/28 25/69/29
f 23/66/26 25/69/29 26/70/30
f 27/71/31 29/72/32 28/73/33
f 27/71/31 30/74/34 29/72/32
f 27/71/31 28/73/33 31/75/35
f 27/71/31 31/75/35 32/76/36
f 33/77/37 35/78/38 34/79/39
f 33/77/37 36/80/40 35/78/38
f 49/81/41 51/82/42 50/83/43
f 49/81/41 52/84/44 51/82/42
f 53/85/45 49/81/41 50/83/43
f 53/85/45 50/83/43 54/86/46
f 55/87/47 57/88/48 56/89/49
f 55/87/47 58/90/50 57/88/48
f 59/91/51 55/87/47 56/89/49
f 59/91/51 56/89/49 60/92/52
f 61/93/53 62/94/54 57/88/55
f 61/93/53 63/95/56 62/94/54
f 64/96/57 66/97/58 65/98/59
f 64/96/57 67/99/60 66/97/58
g book8_mesh_Cube.046_9536bookThick2048_(5).001_Pages_vers2
usemtl Pages_vers2
s off
f 100/100/61 102/101/61 101/102/61
f 100/100/61 103/103/61 102/101/61
f 104/104/62 106/105/62 105/106/62
f 104/104/62 107/107/62 106/105/62
f 108/108/63 110/109/63 109/110/63
f 108/108/63 111/111/63 110/109/63
