# Blender v3.0.1 OBJ File: 'untitledProps.blend'
# www.blender.org
mtllib book2.mtl
o book2_Cube.019
v 0.438134 -0.000093 0.266803
v 0.438134 -0.032656 0.266803
v 0.438134 0.030862 0.266803
v 0.458500 -0.083439 0.255562
v 0.456713 -0.084216 0.255562
v 0.458500 0.083912 0.255562
v 0.456713 -0.084216 -0.447588
v 0.458500 -0.083448 -0.447588
v 0.458500 0.083921 -0.447588
v 0.456714 0.084148 -0.449313
v 0.456713 0.084685 -0.447588
v 0.460150 0.054416 0.271417
v 0.461937 0.054806 0.272020
v 0.461937 -0.052007 0.272364
v 0.460150 -0.051598 0.271836
v 0.460066 0.032698 0.282898
v 0.461853 0.032739 0.283773
v 0.458500 0.069273 0.255562
v 0.456713 0.068512 0.255529
v 0.460066 -0.033182 0.280324
v 0.461853 -0.033175 0.281171
v 0.461937 0.062971 0.283953
v 0.461853 0.033490 0.299077
v 0.458500 -0.071530 0.255562
v 0.456713 -0.070765 0.255529
v 0.461853 -0.000151 0.304412
v 0.460066 -0.033001 0.300225
v 0.461853 -0.033009 0.299324
v 0.461937 -0.063525 0.286322
v 0.461853 -0.000131 0.287911
v 0.460066 -0.000130 0.287014
v 0.456713 0.068501 -0.447620
v 0.456714 0.068503 -0.449313
v 0.458500 0.069253 -0.447588
v 0.456714 -0.069000 -0.449313
v 0.451776 -0.068460 -0.447588
v 0.456713 -0.068470 -0.446340
v 0.458500 -0.069226 -0.447588
v 0.438134 0.031347 -0.428470
v 0.436348 0.031348 -0.430203
v 0.438134 0.000392 -0.424045
v 0.436348 0.000393 -0.425777
v 0.441229 0.054351 0.270288
v 0.443359 0.054417 0.271112
v 0.441291 -0.050282 0.270903
v 0.443359 -0.051597 0.271531
v 0.441279 0.032585 0.281583
v 0.443274 0.032699 0.282593
v 0.439922 0.068514 0.255224
v 0.438134 0.067704 0.255441
v 0.441196 -0.033135 0.278844
v 0.443274 -0.033181 0.280019
v 0.439922 -0.070764 0.255224
v 0.438134 -0.070219 0.253956
v 0.438134 -0.032172 -0.428472
v 0.443274 -0.000129 0.286709
v 0.441300 -0.000127 0.285569
v 0.438134 0.068555 -0.447966
v 0.439922 0.068502 -0.447925
v 0.438134 0.067703 -0.447531
v 0.436348 0.067974 -0.449405
v 0.436348 -0.067925 -0.437955
v 0.438134 -0.067931 -0.436225
v 0.439922 -0.068469 -0.437071
v 0.456713 0.084685 0.255562
v 0.460150 0.063392 0.284569
v 0.460066 0.033535 0.299979
v 0.460066 -0.000152 0.305349
v 0.460150 -0.064008 0.286908
v -0.438134 -0.000093 0.266803
v 0.436348 -0.032170 -0.430203
v -0.438134 -0.032656 0.266803
v -0.438134 0.030862 0.266803
v -0.458500 -0.083439 0.255562
v -0.456713 -0.084216 0.255562
v -0.456713 0.084685 0.255562
v -0.458500 0.083912 0.255562
v 0.456714 -0.083679 -0.449313
v -0.456713 -0.084216 -0.447588
v -0.456714 -0.083679 -0.449313
v -0.458500 -0.083448 -0.447588
v -0.458500 0.083921 -0.447588
v -0.456714 0.084148 -0.449313
v -0.456713 0.084685 -0.447588
v -0.460150 0.054416 0.271417
v -0.461937 0.054806 0.272020
v -0.461937 -0.052007 0.272364
v -0.460150 -0.051598 0.271836
v -0.460065 0.032698 0.282898
v -0.461853 0.032739 0.283773
v -0.458500 0.069273 0.255562
v -0.456713 0.068512 0.255529
v -0.460066 -0.033182 0.280324
v -0.461853 -0.033175 0.281171
v -0.460150 0.063392 0.284569
v -0.461937 0.062971 0.283953
v -0.460066 0.033535 0.299979
v -0.461853 0.033490 0.299077
v -0.458500 -0.071530 0.255562
v -0.456713 -0.070765 0.255529
v -0.461853 -0.000151 0.304412
v -0.460066 -0.000152 0.305349
v -0.460066 -0.033001 0.300225
v -0.461853 -0.033009 0.299324
v -0.460150 -0.064008 0.286908
v -0.461937 -0.063525 0.286322
v -0.461853 -0.000131 0.287911
v -0.460066 -0.000130 0.287014
v -0.456713 0.068501 -0.447620
v -0.456714 0.068503 -0.449313
v -0.456714 0.069041 -0.449313
v -0.458500 0.069253 -0.447588
v -0.456714 -0.069000 -0.449313
v -0.451776 -0.068460 -0.447588
v -0.456713 -0.068470 -0.446340
v -0.458500 -0.069226 -0.447588
v 0.456714 0.069041 -0.449313
v -0.438134 0.031347 -0.428470
v -0.436348 0.031348 -0.430203
v -0.438134 0.000392 -0.424045
v -0.436348 0.000393 -0.425777
v -0.441229 0.054351 0.270288
v -0.443359 0.054417 0.271112
v -0.441291 -0.050282 0.270903
v -0.443358 -0.051597 0.271531
v -0.441279 0.032585 0.281583
v -0.443274 0.032699 0.282593
v -0.439922 0.068514 0.255224
v -0.438134 0.067704 0.255441
v -0.441196 -0.033135 0.278844
v -0.443274 -0.033181 0.280019
v -0.439921 -0.070764 0.255224
v -0.438134 -0.070219 0.253956
v -0.438134 -0.032172 -0.428472
v -0.436348 -0.032170 -0.430203
v -0.443274 -0.000129 0.286709
v -0.441300 -0.000127 0.285569
v -0.438133 0.068555 -0.447966
v -0.439922 0.068502 -0.447925
v -0.438134 0.067703 -0.447531
v -0.436348 0.067974 -0.449405
v -0.437660 -0.068459 -0.439796
v -0.436348 -0.067925 -0.437955
v -0.438134 -0.067931 -0.436225
v -0.439921 -0.068469 -0.437071
v 0.437660 -0.068459 -0.439796
vt 0.434171 0.444291
vt 0.655810 0.444306
vt 0.659457 0.499752
vt 0.440244 0.499006
vt 0.660595 0.464374
vt 0.664195 0.497129
vt 0.440355 0.594598
vt 0.659568 0.595345
vt 0.655583 0.651874
vt 0.437973 0.648415
vt 0.663445 0.596037
vt 0.660973 0.621840
vt 0.659511 0.546338
vt 0.441694 0.545592
vt 0.665510 0.546360
vt 0.439652 0.499021
vt 0.433533 0.443899
vt 0.441101 0.545607
vt 0.439763 0.594613
vt 0.437381 0.648422
vt 0.671619 0.641244
vt 0.677692 0.586529
vt 0.896904 0.585782
vt 0.893258 0.641228
vt 0.901643 0.588405
vt 0.898042 0.621161
vt 0.421106 0.452880
vt 0.421106 0.506631
vt 0.154513 0.506631
vt 0.154513 0.452880
vt 0.421106 0.602231
vt 0.421106 0.657508
vt 0.154513 0.657508
vt 0.154513 0.602231
vt 0.677803 0.490936
vt 0.675421 0.437119
vt 0.893031 0.433660
vt 0.897015 0.490190
vt 0.898421 0.463694
vt 0.900892 0.489498
vt 0.679141 0.539943
vt 0.896958 0.539196
vt 0.421106 0.555606
vt 0.154513 0.555606
vt 0.902957 0.539175
vt 0.670981 0.641635
vt 0.677099 0.586514
vt 0.678549 0.539927
vt 0.677210 0.490921
vt 0.674829 0.437113
vt 0.965893 0.251470
vt 0.952189 0.253105
vt 0.952191 0.245117
vt 0.965895 0.243482
vt 0.899394 0.253065
vt 0.867486 0.253065
vt 0.867489 0.245077
vt 0.899397 0.245077
vt 0.846317 0.744025
vt 0.881978 0.746262
vt 0.881956 0.751896
vt 0.846497 0.750223
vt 0.917451 0.744785
vt 0.918262 0.750009
vt 0.257526 0.070119
vt 0.525870 0.070119
vt 0.525753 0.076422
vt 0.257409 0.076422
vt 0.972654 0.734959
vt 0.956856 0.734987
vt 0.956834 0.494912
vt 0.972664 0.494883
vt 0.813564 0.745846
vt 0.825994 0.741057
vt 0.960328 0.423025
vt 0.960328 0.768921
vt 0.955446 0.764354
vt 0.955446 0.423175
vt 0.931141 0.253065
vt 0.931144 0.245077
vt 0.804902 0.735262
vt 0.792051 0.735285
vt 0.849731 0.253105
vt 0.849734 0.245117
vt 0.950078 0.744790
vt 0.941266 0.740732
vt 0.831291 0.251470
vt 0.831294 0.243482
vt 0.791199 0.495161
vt 0.791779 0.494571
vt 0.792041 0.495210
vt 0.972896 0.494244
vt 0.973476 0.494832
vt 0.956010 0.494852
vt 0.956013 0.494274
vt 0.956592 0.494273
vt 0.960328 0.770381
vt 0.958892 0.769537
vt 0.960847 0.769529
vt 0.187748 0.038937
vt 0.187799 0.037167
vt 0.188579 0.038936
vt 0.188306 0.040705
vt 0.954788 0.765697
vt 0.954407 0.764795
vt 0.954926 0.763942
vt 0.867489 0.253916
vt 0.849334 0.253956
vt 0.830552 0.252321
vt 0.956023 0.734928
vt 0.807389 0.495182
vt 0.807621 0.494543
vt 0.931176 0.253916
vt 0.899388 0.253916
vt 0.952563 0.253956
vt 0.973476 0.734907
vt 0.791199 0.735237
vt 0.966628 0.252321
vt 0.018833 0.947225
vt 0.039586 0.950628
vt 0.039995 0.952397
vt 0.019586 0.948994
vt 0.257393 0.077094
vt 0.256880 0.070119
vt 0.101472 0.950544
vt 0.133452 0.950544
vt 0.133459 0.952313
vt 0.101470 0.952313
vt 0.163634 0.950628
vt 0.163163 0.952397
vt 0.068668 0.950544
vt 0.068711 0.952313
vt 0.183288 0.947225
vt 0.182530 0.948994
vt 0.808192 0.495557
vt 0.805715 0.735199
vt 0.851008 0.244133
vt 0.867539 0.244088
vt 0.831827 0.242631
vt 0.966908 0.939344
vt 0.966921 0.666976
vt 0.967913 0.666879
vt 0.967913 0.939315
vt 0.899405 0.244138
vt 0.931039 0.244128
vt 0.952131 0.244104
vt 0.965112 0.242631
vt 0.954926 0.423805
vt 0.004689 0.007688
vt 0.007663 0.012987
vt 0.007663 0.341583
vt 0.004689 0.346882
vt 0.965893 0.256781
vt 0.965895 0.264769
vt 0.952191 0.263134
vt 0.952189 0.255146
vt 0.971996 0.950966
vt 0.954018 0.950966
vt 0.954018 0.608065
vt 0.971996 0.608065
vt 0.039586 0.039589
vt 0.068668 0.039673
vt 0.899394 0.255186
vt 0.899397 0.263174
vt 0.867489 0.263174
vt 0.867486 0.255186
vt 0.844343 0.279141
vt 0.844519 0.273058
vt 0.879321 0.271416
vt 0.879342 0.276946
vt 0.163634 0.039589
vt 0.183288 0.042992
vt 0.914955 0.273269
vt 0.914159 0.278395
vt 0.257526 0.413020
vt 0.257409 0.406717
vt 0.525753 0.406717
vt 0.525870 0.413020
vt 0.968339 0.288040
vt 0.968349 0.523668
vt 0.952813 0.523640
vt 0.952834 0.288012
vt 0.101472 0.039673
vt 0.812196 0.277355
vt 0.824396 0.282054
vt 0.958350 0.060573
vt 0.963232 0.060723
vt 0.963232 0.401903
vt 0.958350 0.406470
vt 0.931144 0.263174
vt 0.931141 0.255186
vt 0.133452 0.039673
vt 0.257393 0.406045
vt 0.256880 0.413020
vt 0.969754 0.667092
vt 0.951251 0.667092
vt 0.951251 0.324191
vt 0.969753 0.324191
vt 0.803695 0.287742
vt 0.791081 0.287719
vt 0.849734 0.263134
vt 0.849731 0.255146
vt 0.237528 0.949239
vt 0.237528 0.048323
vt 0.723309 0.048323
vt 0.723309 0.949239
vt 0.240864 0.947400
vt 0.240864 0.056496
vt 0.720364 0.056496
vt 0.720364 0.947399
vt 0.946182 0.278391
vt 0.937533 0.282374
vt 0.018833 0.042992
vt 0.831294 0.264769
vt 0.831291 0.256781
vt 0.779210 0.060428
vt 0.780088 0.060377
vt 0.779815 0.061043
vt 0.968600 0.060717
vt 0.969448 0.060771
vt 0.968843 0.061385
vt 0.951220 0.060750
vt 0.952080 0.060687
vt 0.951827 0.061354
vt 0.951222 0.061353
vt 0.958350 0.407930
vt 0.957830 0.407078
vt 0.959785 0.407085
vt 0.187748 0.906385
vt 0.188306 0.904617
vt 0.188579 0.906385
vt 0.187799 0.908155
vt 0.963890 0.403246
vt 0.963751 0.401490
vt 0.964271 0.402343
vt 0.867489 0.254336
vt 0.849334 0.254295
vt 0.830552 0.255930
vt 0.952016 0.288070
vt 0.952004 0.523699
vt 0.958409 0.134381
vt 0.959078 0.134381
vt 0.959078 0.477282
vt 0.958409 0.477282
vt 0.966680 0.426798
vt 0.967334 0.426798
vt 0.967334 0.769699
vt 0.966680 0.769700
vt 0.796107 0.060406
vt 0.796349 0.061073
vt 0.931176 0.254336
vt 0.899388 0.254336
vt 0.952563 0.254295
vt 0.969146 0.523719
vt 0.969146 0.288090
vt 0.790246 0.287767
vt 0.791071 0.523348
vt 0.790246 0.523396
vt 0.966628 0.255930
vt 0.019586 0.041223
vt 0.039995 0.037820
vt 0.101470 0.037904
vt 0.133459 0.037904
vt 0.163163 0.037820
vt 0.068711 0.037904
vt 0.182530 0.041223
vt 0.804493 0.287804
vt 0.806924 0.523007
vt 0.806136 0.523375
vt 0.791689 0.427089
vt 0.791031 0.427089
vt 0.791031 0.084188
vt 0.791689 0.084188
vt 0.004035 0.005834
vt 0.004035 0.348736
vt 0.867539 0.264163
vt 0.851008 0.264118
vt 0.831827 0.265620
vt 0.841053 0.270378
vt 0.841076 0.269081
vt 1.052066 0.269081
vt 1.051990 0.270361
vt 0.931039 0.264124
vt 0.899405 0.264114
vt 0.952131 0.264147
vt 0.965112 0.265620
vt 0.963751 0.061353
vt 0.008362 0.013480
vt 0.008362 0.341091
vn 0.6697 -0.5390 -0.5108
vn 0.7631 -0.5757 -0.2937
vn 0.9927 -0.0288 -0.1170
vn 0.9322 -0.1040 -0.3468
vn 0.6934 -0.4158 -0.5884
vn 0.7607 -0.1919 -0.6201
vn 0.9230 0.0656 -0.3792
vn 0.9904 0.0366 -0.1335
vn 0.7807 0.5887 -0.2096
vn 0.6283 0.7271 -0.2767
vn 0.7803 0.1904 -0.5957
vn 0.7655 0.2958 -0.5714
vn 0.9954 0.0019 -0.0960
vn 0.9330 -0.0012 -0.3599
vn 0.7895 0.0221 -0.6134
vn 0.3759 -0.2950 -0.8784
vn 0.2454 0.2675 -0.9318
vn 0.3875 -0.0033 -0.9219
vn 0.3751 0.1620 -0.9127
vn 0.2306 0.7596 -0.6081
vn -0.6697 -0.5390 -0.5108
vn -0.9322 -0.1040 -0.3468
vn -0.9927 -0.0288 -0.1170
vn -0.7631 -0.5757 -0.2937
vn -0.7607 -0.1919 -0.6201
vn -0.6934 -0.4158 -0.5884
vn -0.2306 0.7596 -0.6081
vn -0.3751 0.1620 -0.9127
vn -0.3759 -0.2950 -0.8784
vn -0.2454 0.2675 -0.9318
vn -0.9230 0.0656 -0.3792
vn -0.6283 0.7271 -0.2767
vn -0.7807 0.5887 -0.2096
vn -0.9904 0.0366 -0.1335
vn -0.7655 0.2958 -0.5714
vn -0.7803 0.1904 -0.5957
vn -0.9330 -0.0012 -0.3599
vn -0.9954 0.0019 -0.0960
vn -0.3875 -0.0033 -0.9219
vn -0.7895 0.0221 -0.6134
vn 0.1991 -0.9045 -0.3771
vn 0.2048 -0.5943 -0.7777
vn 0.1667 -0.5946 -0.7866
vn 0.1915 -0.9230 -0.3338
vn 0.2408 0.0375 -0.9698
vn 0.2154 0.3096 -0.9262
vn 0.2541 0.2971 -0.9204
vn 0.2545 0.0355 -0.9664
vn 0.8569 0.1582 -0.4906
vn 0.8737 0.0177 -0.4861
vn 0.8310 0.0010 0.5563
vn 0.8253 -0.1609 0.5412
vn 0.8719 -0.1439 -0.4681
vn 0.8214 0.1840 0.5399
vn 0.2500 -0.9655 -0.0731
vn 0.1220 -0.9893 -0.0804
vn 0.7737 0.6062 0.1842
vn 0.8851 -0.4107 -0.2190
vn 0.8347 -0.4580 -0.3058
vn 0.8168 0.4820 -0.3171
vn 0.8000 -0.4130 0.4352
vn 0.8422 0.2561 -0.4745
vn 0.2015 0.8741 -0.4419
vn 0.1792 0.9819 -0.0621
vn 0.0941 0.9950 -0.0334
vn 0.2647 0.8491 -0.4571
vn 0.2284 -0.3000 -0.9262
vn 0.2278 -0.2894 -0.9297
vn 0.8973 0.3775 -0.2289
vn 0.7793 -0.6055 0.1614
vn 0.1902 0.5189 -0.8334
vn 0.2646 0.5114 -0.8176
vn 0.8068 0.4128 0.4228
vn 0.8554 -0.2752 -0.4389
vn 0.1966 -0.9697 -0.1451
vn 0.3190 -0.5341 -0.7829
vn 0.8174 -0.4810 -0.3171
vn 0.3188 0.5340 -0.7831
vn 0.1956 0.9699 -0.1451
vn 0.2507 -0.7874 -0.5632
vn 0.3804 -0.2499 -0.8904
vn 0.3081 0.5727 -0.7597
vn 0.0112 0.9886 -0.1499
vn 0.7747 0.5338 -0.3390
vn 0.2299 -0.8313 -0.5060
vn 0.0402 0.9961 -0.0783
vn 0.1862 0.9388 0.2898
vn 0.1885 -0.9463 0.2627
vn 0.1969 0.6411 0.7418
vn 0.2304 0.0016 0.9731
vn 0.2170 -0.2654 0.9394
vn 0.2008 -0.6386 0.7429
vn 0.2178 0.2994 0.9289
vn -0.0112 0.9886 -0.1499
vn -0.0402 0.9961 -0.0783
vn -0.1991 -0.9045 -0.3771
vn -0.1915 -0.9230 -0.3338
vn -0.1667 -0.5946 -0.7866
vn -0.2048 -0.5943 -0.7777
vn -0.3190 -0.5341 -0.7829
vn -0.3081 0.5727 -0.7597
vn -0.1969 0.6411 0.7418
vn -0.2178 0.2994 0.9289
vn -0.2408 0.0375 -0.9698
vn -0.2545 0.0355 -0.9664
vn -0.2541 0.2971 -0.9204
vn -0.2154 0.3096 -0.9262
vn -0.8569 0.1582 -0.4906
vn -0.8253 -0.1609 0.5412
vn -0.8310 0.0010 0.5563
vn -0.8737 0.0177 -0.4861
vn -0.2008 -0.6386 0.7429
vn -0.1885 -0.9463 0.2627
vn -0.8214 0.1840 0.5399
vn -0.8719 -0.1439 -0.4681
vn -0.2500 -0.9655 -0.0731
vn -0.1220 -0.9893 -0.0804
vn -0.7737 0.6062 0.1842
vn -0.8168 0.4820 -0.3171
vn -0.8347 -0.4580 -0.3058
vn -0.8851 -0.4107 -0.2190
vn -0.2304 0.0016 0.9731
vn -0.8000 -0.4130 0.4352
vn -0.8422 0.2561 -0.4745
vn -0.2015 0.8741 -0.4419
vn -0.2647 0.8491 -0.4571
vn -0.0941 0.9950 -0.0334
vn -0.1792 0.9819 -0.0621
vn -0.2278 -0.2894 -0.9297
vn -0.2284 -0.3000 -0.9262
vn -0.2170 -0.2654 0.9394
vn -0.2299 -0.8313 -0.5061
vn -0.2508 -0.7874 -0.5632
vn -0.3804 -0.2498 -0.8904
vn -0.3188 0.5340 -0.7831
vn -0.8973 0.3775 -0.2289
vn -0.7793 -0.6055 0.1614
vn -0.2646 0.5114 -0.8176
vn -0.1902 0.5189 -0.8334
vn -0.1956 0.9699 -0.1451
vn -0.1862 0.9388 0.2898
vn -0.1966 -0.9697 -0.1451
vn -0.8068 0.4128 0.4228
vn -0.8554 -0.2752 -0.4389
vn -0.8174 -0.4810 -0.3171
vn -0.7747 0.5338 -0.3390
g book2_Cube.019_Pages
usemtl Pages
s 1
f 60/1/1 50/2/2 3/3/3 39/4/4
f 50/2/2 43/5/5 47/6/6 3/3/3
f 55/7/7 2/8/8 54/9/9 63/10/10
f 2/8/8 51/11/11 45/12/12 54/9/9
f 3/3/3 1/13/13 41/14/14 39/4/4
f 41/14/14 1/13/13 2/8/8 55/7/7
f 47/6/6 57/15/15 1/13/13 3/3/3
f 1/13/13 57/15/15 51/11/11 2/8/8
f 60/1/1 39/4/4 40/16/16 61/17/17
f 39/4/4 41/14/14 42/18/18 40/16/16
f 41/14/14 55/7/7 71/19/19 42/18/18
f 55/7/7 63/10/10 62/20/20 71/19/19
f 140/21/21 118/22/22 73/23/23 129/24/24
f 129/24/24 73/23/23 126/25/25 122/26/26
f 143/27/27 135/28/28 71/29/19 62/30/20
f 119/31/29 141/32/30 61/33/17 40/34/16
f 134/35/31 144/36/32 133/37/33 72/38/34
f 72/38/34 133/37/33 124/39/35 130/40/36
f 73/23/23 118/22/22 120/41/37 70/42/38
f 120/41/37 134/35/31 72/38/34 70/42/38
f 135/28/28 121/43/39 42/44/18 71/29/19
f 126/25/25 73/23/23 70/42/38 137/45/40
f 70/42/38 72/38/34 130/40/36 137/45/40
f 121/43/39 119/31/29 40/34/16 42/44/18
f 140/21/21 141/46/30 119/47/29 118/22/22
f 118/22/22 119/47/29 121/48/39 120/41/37
f 120/41/37 121/48/39 135/49/28 134/35/31
f 134/35/31 135/49/28 143/50/27 144/36/32
g book2_Cube.019_cover4
usemtl cover4
f 19/51/41 12/52/42 44/53/43 49/54/44
f 31/55/45 20/56/46 52/57/47 56/58/48
f 21/59/49 30/60/50 26/61/51 28/62/52
f 26/61/51 30/60/50 17/63/53 23/64/54
f 32/65/55 19/66/41 49/67/44 59/68/56
f 6/69/57 18/70/58 34/71/59 9/72/60
f 29/73/61 14/74/62 21/59/49 28/62/52
f 25/75/63 37/76/64 64/77/65 53/78/66
f 12/52/42 16/79/67 48/80/68 44/53/43
f 16/79/67 31/55/45 56/58/48 48/80/68
f 24/81/69 14/74/62 29/73/61 4/82/70
f 20/56/46 15/83/71 46/84/72 52/57/47
f 22/85/73 13/86/74 18/70/58 6/69/57
f 23/64/54 17/63/53 13/86/74 22/85/73
f 15/83/71 25/87/63 53/88/66 46/84/72
f 7/89/75 78/90/76 8/91/77
f 9/72/60 10/92/78 11/93/79
f 32/94/55 33/95/80 117/96/81 34/71/59
f 35/97/82 36/98/83 37/76/64 38/99/84
f 58/100/85 59/101/56 60/102/1 61/103/17
f 146/104/86 62/105/20 63/106/10 64/77/65
f 21/107/49 14/108/62 15/83/71 20/56/46
f 14/108/62 24/109/69 25/87/63 15/83/71
f 19/110/41 32/94/55 34/71/59 18/70/58
f 9/72/60 34/71/59 117/96/81 10/92/78
f 38/111/84 8/91/77 78/90/76 35/112/82
f 17/113/53 30/114/50 31/55/45 16/79/67
f 13/115/74 17/113/53 16/79/67 12/52/42
f 11/93/79 65/116/87 6/69/57 9/72/60
f 5/117/88 7/89/75 8/91/77 4/82/70
f 18/118/58 13/115/74 12/52/42 19/51/41
f 65/119/87 66/120/89 22/121/73 6/122/57
f 58/123/85 33/124/80 32/65/55 59/68/56
f 68/125/90 27/126/91 28/127/52 26/128/51
f 27/126/91 69/129/92 29/130/61 28/127/52
f 30/114/50 21/107/49 20/56/46 31/55/45
f 66/120/89 67/131/93 23/132/54 22/121/73
f 67/131/93 68/125/90 26/128/51 23/132/54
f 69/129/92 5/133/88 4/134/70 29/130/61
f 64/77/65 37/76/64 36/98/83 146/104/86
f 24/81/69 38/111/84 37/135/64 25/136/63
f 52/57/47 46/84/72 45/137/12 51/138/11
f 46/84/72 53/88/66 54/139/9 45/137/12
f 50/140/2 60/141/1 59/142/56 49/143/44
f 48/80/68 56/58/48 57/144/15 47/145/6
f 44/53/43 48/80/68 47/145/6 43/146/5
f 49/54/44 44/53/43 43/146/5 50/147/2
f 56/58/48 52/57/47 51/138/11 57/144/15
f 53/78/66 64/77/65 63/106/10 54/148/9
f 38/111/84 24/81/69 4/82/70 8/91/77
f 114/149/94 142/150/95 146/151/86 36/152/83
f 92/153/96 128/154/97 123/155/98 85/156/99
f 80/157/100 113/158/101 35/159/82 78/160/76
f 66/120/89 95/161/102 97/162/103 67/131/93
f 108/163/104 136/164/105 131/165/106 93/166/107
f 94/167/108 104/168/109 101/169/110 107/170/111
f 69/129/92 105/171/112 75/172/113 5/133/88
f 101/169/110 98/173/114 90/174/115 107/170/111
f 109/175/116 139/176/117 128/177/97 92/178/96
f 77/179/118 82/180/119 112/181/120 91/182/121
f 67/131/93 97/162/103 102/183/122 68/125/90
f 106/184/123 104/168/109 94/167/108 87/185/124
f 100/186/125 132/187/126 145/188/127 115/189/128
f 85/156/99 123/155/98 127/190/129 89/191/130
f 89/191/130 127/190/129 136/164/105 108/163/104
f 27/126/91 103/192/131 105/171/112 69/129/92
f 68/125/90 102/183/122 103/192/131 27/126/91
f 33/124/80 58/123/85 138/193/132 110/194/133
f 111/195/134 83/196/135 10/197/78 117/198/81
f 99/199/136 74/200/137 106/184/123 87/185/124
f 93/166/107 131/165/106 125/201/138 88/202/139
f 11/203/79 84/204/140 76/205/141 65/206/87
f 79/207/142 7/208/75 5/209/88 75/210/113
f 96/211/143 77/179/118 91/182/121 86/212/144
f 98/173/114 96/211/143 86/212/144 90/174/115
f 65/119/87 76/213/141 95/161/102 66/120/89
f 88/202/139 125/201/138 132/214/126 100/215/125
f 79/216/142 81/217/145 80/218/100
f 82/219/119 84/220/140 83/221/135
f 109/222/116 112/223/120 111/224/134 110/225/133
f 113/226/101 116/227/146 115/189/128 114/228/94
f 138/229/132 141/230/30 140/231/21 139/232/117
f 142/233/95 145/188/127 144/234/32 143/235/27
f 94/236/108 93/166/107 88/202/139 87/237/124
f 87/237/124 88/202/139 100/215/125 99/238/136
f 92/239/96 91/182/121 112/181/120 109/240/116
f 82/219/119 83/221/135 111/224/134 112/223/120
f 78/241/76 7/242/75 79/243/142 80/244/100
f 83/245/135 84/246/140 11/247/79 10/248/78
f 116/249/146 113/250/101 80/218/100 81/217/145
f 90/251/115 89/191/130 108/163/104 107/252/111
f 86/253/144 85/156/99 89/191/130 90/251/115
f 84/254/140 82/180/119 77/179/118 76/255/141
f 75/256/113 74/200/137 81/257/145 79/258/142
f 91/259/121 92/153/96 85/156/99 86/253/144
f 76/213/141 77/260/118 96/261/143 95/161/102
f 138/193/132 139/176/117 109/175/116 110/194/133
f 102/183/122 101/262/110 104/263/109 103/192/131
f 103/192/131 104/263/109 106/264/123 105/171/112
f 107/252/111 108/163/104 93/166/107 94/236/108
f 95/161/102 96/261/143 98/265/114 97/162/103
f 97/162/103 98/265/114 101/262/110 102/183/122
f 105/171/112 106/264/123 74/266/137 75/172/113
f 145/188/127 142/233/95 114/228/94 115/189/128
f 99/199/136 100/267/125 115/268/128 116/269/146
f 110/270/133 111/271/134 117/272/81 33/273/80
f 113/274/101 114/149/94 36/152/83 35/275/82
f 131/165/106 130/276/36 124/277/35 125/201/138
f 125/201/138 124/277/35 133/278/33 132/214/126
f 129/279/24 128/280/97 139/281/117 140/282/21
f 127/190/129 126/283/25 137/284/40 136/164/105
f 123/155/98 122/285/26 126/283/25 127/190/129
f 128/154/97 129/286/24 122/285/26 123/155/98
f 136/164/105 137/284/40 130/276/36 131/165/106
f 132/187/126 133/287/33 144/234/32 145/188/127
f 141/230/30 138/229/132 58/100/85 61/103/17
f 142/150/95 143/288/27 62/289/20 146/151/86
f 116/269/146 81/257/145 74/200/137 99/199/136
