# Blender v3.0.0 OBJ File: 'untitledProps.blend'
# www.blender.org
mtllib Carpet_2.mtl
o Carpet_2_plane
v 3.987546 0.000000 -2.166812
v 3.985572 0.000000 -2.342019
v 3.558236 0.000000 -2.573700
v -3.695207 0.000000 2.605150
v -3.638773 0.000000 2.610989
v -3.576385 0.000000 2.599289
v -3.441036 0.000000 2.590706
v -3.387921 0.000000 2.587428
v -3.978674 0.000000 2.019964
v -3.232841 0.000000 2.572317
v -3.977856 -0.001192 2.223411
v -3.982156 0.000000 2.621854
v -3.902170 0.000000 2.618331
v -3.982614 0.000000 2.555084
v -3.807341 0.000000 2.606480
v -3.974071 0.000000 2.401926
v -3.141191 0.000000 2.565064
v -3.987244 0.000000 1.833502
v -3.053907 0.000000 2.561124
v -2.859787 0.000000 2.538092
v -4.012223 0.000000 1.606023
v -4.018128 0.000000 1.451820
v -4.028491 -0.001192 1.292262
v -2.756703 0.000000 2.536772
v -4.029802 -0.001192 0.847881
v -4.031118 -0.001192 1.102326
v -2.266596 0.000000 2.524311
v -2.711284 0.000000 2.536772
v -4.030460 -0.001192 -0.012803
v -4.033245 0.000000 0.208769
v -1.570469 0.000000 2.511721
v -4.029144 -0.001192 0.584790
v -1.936630 0.000000 2.509151
v -2.019306 0.000000 2.511134
v -2.136380 0.000000 2.520344
v -2.392343 -0.008894 2.537777
v -2.636938 0.000000 2.547298
v -2.574247 0.000000 2.547947
v -4.028642 -0.000000 -0.369088
v -4.031118 -0.001192 -0.290827
v -1.658748 0.000000 -2.486875
v -1.810025 0.000000 2.513086
v -2.331373 0.000000 2.539511
v -4.028646 -0.000000 -0.959677
v -4.031777 -0.001192 -0.803908
v -2.042186 0.000000 -2.498091
v -4.018093 -0.000000 -1.425151
v -4.023385 0.000000 -1.303447
v -2.763912 -0.001192 -2.545919
v -2.471577 -0.001192 -2.547889
v -3.118004 0.000000 -2.555947
v -4.026027 -0.000000 -1.474732
v -4.030621 -0.000000 -1.772661
v -3.182309 0.000000 -2.557273
v -4.035219 0.000000 -2.197471
v -4.035877 -0.000000 -1.971162
v -3.509086 0.000000 -2.596043
v -3.315980 0.000000 -2.573754
v -3.635229 0.000000 -2.592774
v -3.938615 0.000000 -2.573696
v -4.058282 -0.001188 -2.573696
v -3.836273 -0.001192 -2.593863
v -3.890070 -0.001192 -2.596563
v -3.785185 0.000000 -2.593383
v -2.935663 -0.001192 -2.551185
v -3.682991 -0.001192 -2.592600
v -3.405496 -0.001192 -2.592636
v -3.232570 0.000000 -2.566531
v -1.845918 0.000000 -2.494128
v -1.748873 0.000000 2.515723
v -1.644927 0.000000 2.515074
v -1.484688 0.000000 2.517049
v -1.439212 0.000000 2.513095
v -2.195732 0.000000 -2.529065
v -2.336696 -0.001192 -2.547240
v -2.384302 -0.004447 -2.551149
v -1.347909 0.000000 2.514407
v -1.358413 0.000000 -2.492807
v -1.207505 0.000000 2.518378
v -1.150782 0.000000 2.520984
v -0.900263 0.000000 2.515083
v -0.944881 0.000000 -2.501435
v -1.750923 0.000000 -2.496094
v -0.697475 0.000000 2.518365
v -1.490109 -0.001192 -2.499233
v -0.303213 0.000000 2.534219
v -0.433402 0.000000 -2.524373
v -1.286854 -0.001192 -2.502520
v -0.170391 0.000000 2.544701
v -0.026451 -0.001192 -2.536056
v -0.521583 -0.004447 -2.534050
v -0.310457 0.000000 -2.529634
v 0.110573 0.000000 2.570356
v 0.247695 0.000000 2.585445
v 0.449198 0.000000 2.591391
v 0.105174 -0.001192 -2.534081
v -0.261899 -0.001192 -2.532769
v 0.353029 -0.001192 -2.554458
v 0.237311 -0.004447 -2.547209
v 0.441695 0.000000 -2.545408
v 0.538753 0.000000 2.594620
v 0.620923 0.000000 2.605804
v 0.717140 0.000000 2.597239
v 0.802414 0.000000 2.603189
v 1.009595 0.000000 2.605817
v 1.089505 -0.001192 2.616833
v 1.333291 0.000000 2.603838
v 1.519309 0.000000 2.607783
v 1.610163 0.000000 2.603176
v 1.723422 0.000000 2.608441
v 4.053145 -0.001192 0.221355
v 1.894809 0.000000 2.605813
v 2.100786 0.000000 2.604501
v 2.152893 0.000000 2.597906
v 2.284763 0.000000 2.601882
v 2.524484 0.000000 2.611074
v 4.069586 -0.001192 1.079357
v 2.671065 0.000000 2.609762
v 4.052647 0.000000 0.446947
v 4.038839 0.000000 0.000538
v 4.059878 0.000000 0.740203
v 2.909826 0.000000 2.590030
v 3.020327 0.000000 2.590688
v 4.055943 0.000000 1.623309
v 3.144940 0.000000 2.581460
v 4.064481 0.000000 1.343511
v 1.348487 -0.004447 -2.545230
v 1.085894 0.000000 -2.551994
v 0.845324 0.000000 -2.555952
v 0.714063 0.000000 -2.558567
v 1.413646 -0.001192 -2.546573
v 1.535839 -0.004447 -2.545230
v 1.830380 0.000000 -2.531609
v 1.596373 -0.008894 -2.545105
v 2.583666 0.000000 -2.527001
v 2.340681 -0.001192 -2.536056
v 4.007264 -0.000000 -0.991158
v 2.151350 0.000000 -2.530950
v 4.019116 -0.000000 -0.798215
v 4.023056 0.000000 -0.666879
v 4.031603 -0.000000 -0.366424
v 2.872759 -0.004447 -2.547858
v 2.778098 -0.001192 -2.548543
v 3.990192 -0.000000 -1.541803
v 3.014048 -0.004447 -2.555094
v 2.930852 -0.001192 -2.554458
v 3.422319 0.000000 -2.571072
v 3.992140 0.000000 -2.050649
v 3.250407 -0.001192 -2.556445
v 3.983606 -0.000000 -1.859584
v 4.040818 0.000000 1.825199
v 3.324745 0.000000 2.595949
v 3.414821 0.000000 2.595291
v 4.035557 0.000000 2.034849
v 3.581961 0.000000 2.608401
v 4.019165 0.000000 2.198792
v 3.669529 0.000000 2.611025
v 3.730948 0.000000 2.603683
v 3.837318 0.000000 2.611750
v 3.907587 0.000000 2.620208
v 3.975099 0.000000 2.541396
v 3.970305 0.000000 2.611496
v 3.986959 0.000000 2.464310
v 4.009248 0.000000 -1.284849
v 4.011218 0.000000 -1.136031
v 3.990183 0.000000 -2.485012
v 3.996085 0.000000 -2.609126
v 3.805157 0.000000 -2.590159
vt 0.098537 0.025289
vt 0.066134 0.025525
vt 0.023286 0.076501
vt 0.981078 0.941751
vt 0.982159 0.935021
vt 0.979994 0.927577
vt 0.978407 0.911432
vt 0.977800 0.905095
vt 0.872852 0.975566
vt 0.975005 0.886596
vt 0.910468 0.974937
vt 0.984167 0.975981
vt 0.983516 0.966440
vt 0.971819 0.976035
vt 0.981324 0.955128
vt 0.943493 0.975016
vt 0.973664 0.875663
vt 0.838367 0.976588
vt 0.972935 0.865251
vt 0.968677 0.842095
vt 0.796297 0.979568
vt 0.767778 0.980272
vt 0.738248 0.980978
vt 0.968432 0.829799
vt 0.656087 0.981134
vt 0.703138 0.981291
vt 0.966127 0.771335
vt 0.968432 0.824380
vt 0.496919 0.981213
vt 0.537884 0.982075
vt 0.964903 0.686159
vt 0.607416 0.981056
vt 0.963324 0.731973
vt 0.963690 0.741836
vt 0.965394 0.755802
vt 0.969365 0.781607
vt 0.970379 0.815512
vt 0.970499 0.808034
vt 0.435704 0.980730
vt 0.445523 0.981291
vt 0.039344 0.698825
vt 0.963427 0.712524
vt 0.968939 0.779062
vt 0.321788 0.981526
vt 0.350597 0.981370
vt 0.037269 0.744565
vt 0.235702 0.980267
vt 0.258210 0.980899
vt 0.029246 0.830665
vt 0.028882 0.795826
vt 0.026569 0.872898
vt 0.226533 0.981214
vt 0.171433 0.981762
vt 0.026324 0.880569
vt 0.092867 0.982311
vt 0.134721 0.982389
vt 0.019154 0.919549
vt 0.023276 0.896514
vt 0.019758 0.934596
vt 0.023287 0.970787
vt 0.023287 0.984532
vt 0.020391 0.958650
vt 0.019878 0.964897
vt 0.019646 0.952484
vt 0.028272 0.851168
vt 0.020615 0.940278
vt 0.020602 0.907254
vt 0.024612 0.886564
vt 0.038002 0.721152
vt 0.964538 0.709576
vt 0.964419 0.697177
vt 0.964785 0.678062
vt 0.964053 0.672637
vt 0.031541 0.762881
vt 0.029002 0.779726
vt 0.030496 0.789181
vt 0.963561 0.657399
vt 0.038246 0.662999
vt 0.965030 0.644997
vt 0.965512 0.638231
vt 0.963807 0.604549
vt 0.037883 0.616451
vt 0.037639 0.709821
vt 0.965028 0.584157
vt 0.037881 0.678701
vt 0.968434 0.536437
vt 0.032409 0.552656
vt 0.037273 0.654447
vt 0.970138 0.516280
vt 0.031070 0.504110
vt 0.032044 0.563158
vt 0.031436 0.537990
vt 0.974643 0.487766
vt 0.977434 0.471410
vt 0.979253 0.445980
vt 0.031436 0.488395
vt 0.031679 0.532201
vt 0.027669 0.458834
vt 0.029605 0.472573
vt 0.028518 0.448267
vt 0.980965 0.433772
vt 0.981200 0.426888
vt 0.979615 0.415410
vt 0.980714 0.405237
vt 0.981202 0.380523
vt 0.982415 0.370979
vt 0.980835 0.341911
vt 0.981565 0.319721
vt 0.980713 0.308883
vt 0.981687 0.295372
vt 0.540237 0.017994
vt 0.981200 0.274928
vt 0.980958 0.250357
vt 0.979739 0.244142
vt 0.980102 0.217102
vt 0.982173 0.199815
vt 0.698900 0.016033
vt 0.981931 0.182330
vt 0.581934 0.017523
vt 0.499373 0.019171
vt 0.636169 0.016661
vt 0.978282 0.153849
vt 0.978404 0.140667
vt 0.799493 0.017130
vt 0.976696 0.125802
vt 0.747746 0.016112
vt 0.029979 0.340091
vt 0.027301 0.371422
vt 0.026568 0.400119
vt 0.026085 0.415777
vt 0.029127 0.332316
vt 0.029975 0.317778
vt 0.031070 0.282614
vt 0.030219 0.310549
vt 0.031923 0.192755
vt 0.031070 0.221745
vt 0.315966 0.022937
vt 0.031192 0.244326
vt 0.351650 0.021523
vt 0.375939 0.021053
vt 0.431506 0.020033
vt 0.029495 0.158211
vt 0.028763 0.169550
vt 0.214128 0.024974
vt 0.028152 0.141421
vt 0.027670 0.151303
vt 0.023772 0.092714
vt 0.120020 0.024741
vt 0.027299 0.113186
vt 0.155357 0.025759
vt 0.836832 0.018935
vt 0.979376 0.104353
vt 0.979254 0.093608
vt 0.875605 0.019562
vt 0.981069 0.070602
vt 0.905925 0.021517
vt 0.982164 0.063225
vt 0.981817 0.053782
vt 0.982298 0.043209
vt 0.983862 0.034827
vt 0.969288 0.026774
vt 0.982252 0.027346
vt 0.955031 0.025359
vt 0.261650 0.022700
vt 0.289173 0.022466
vt 0.039688 0.024974
vt 0.016734 0.024271
vt 0.020242 0.047046
vn 0.0000 1.0000 0.0000
vn -0.0000 1.0000 -0.0008
vn -0.0000 1.0000 -0.0013
vn -0.0046 1.0000 0.0044
vn -0.0015 1.0000 0.0014
vn -0.0002 1.0000 -0.0030
vn -0.0062 1.0000 0.0059
vn 0.0042 1.0000 -0.0058
vn 0.0005 1.0000 -0.0007
vn 0.0049 1.0000 -0.0068
vn 0.0008 1.0000 -0.0009
vn 0.0045 1.0000 -0.0056
vn 0.0041 1.0000 -0.0048
vn -0.0006 1.0000 -0.0000
vn -0.0007 1.0000 -0.0000
vn -0.0005 1.0000 -0.0002
vn -0.0009 1.0000 0.0000
vn -0.0007 1.0000 -0.0003
vn 0.0035 1.0000 -0.0038
vn -0.0010 1.0000 0.0010
vn 0.0020 1.0000 -0.0022
vn -0.0005 1.0000 -0.0001
vn -0.0022 1.0000 0.0017
vn -0.0000 1.0000 -0.0006
vn -0.0001 1.0000 -0.0006
vn 0.0279 0.9993 -0.0265
vn -0.0622 0.9951 0.0764
vn 0.0140 0.9998 0.0157
vn -0.0005 1.0000 0.0000
vn -0.0002 1.0000 0.0000
vn 0.0273 0.9418 -0.3350
vn -0.1131 0.8690 -0.4818
vn 0.0017 1.0000 0.0022
vn 0.0044 1.0000 0.0059
vn 0.0033 1.0000 0.0052
vn -0.0029 1.0000 -0.0027
vn 0.0037 1.0000 0.0027
vn 0.0004 1.0000 -0.0007
vn 0.0006 1.0000 -0.0004
vn -0.0027 1.0000 -0.0035
vn -0.0001 1.0000 -0.0010
vn 0.0005 1.0000 0.0004
vn -0.0099 0.9999 -0.0025
vn 0.0024 0.9989 -0.0471
vn -0.0232 0.9996 -0.0146
vn 0.0123 0.9999 0.0031
vn 0.0052 1.0000 0.0040
vn -0.0250 0.9994 -0.0253
vn 0.0116 0.9999 0.0073
vn 0.0159 0.9903 -0.1380
vn -0.0040 1.0000 -0.0047
vn 0.0032 0.7487 -0.6629
vn 0.0003 0.9977 -0.0680
vn -0.0026 0.9914 -0.1309
vn -0.0030 0.9896 -0.1435
vn 0.0000 1.0000 -0.0002
vn -0.0139 0.9506 -0.3101
vn -0.0018 1.0000 -0.0001
vn -0.0000 1.0000 -0.0001
vn 0.0245 0.9997 -0.0000
vn -0.0225 0.9958 0.0888
vn -0.0165 0.9189 -0.3942
vn -0.0004 1.0000 -0.0000
vn 0.0006 0.9947 0.1030
vn 0.0032 1.0000 0.0029
vn 0.0000 1.0000 -0.0005
vn -0.0032 1.0000 -0.0032
vn 0.0022 1.0000 0.0018
vn -0.0015 1.0000 -0.0023
vn -0.0026 1.0000 -0.0028
vn -0.0006 1.0000 -0.0006
vn 0.0054 1.0000 0.0050
vn 0.0039 1.0000 0.0039
vn 0.0026 1.0000 0.0024
vn -0.0005 1.0000 -0.0005
vn -0.0000 1.0000 -0.0009
vn 0.0169 0.9999 0.0003
vn -0.0499 0.9988 -0.0010
vn 0.0266 0.9996 0.0002
vn -0.0009 1.0000 -0.0009
vn -0.0400 0.9986 0.0349
vn 0.0732 0.9946 -0.0737
vn -0.0051 1.0000 0.0047
vn 0.0061 1.0000 -0.0073
vn 0.0041 1.0000 -0.0047
vn 0.0044 1.0000 -0.0052
vn 0.0346 0.9985 -0.0429
vn 0.0053 1.0000 -0.0076
vn 0.0342 0.7436 0.6678
vn -0.0065 1.0000 0.0051
vn -0.0078 0.9999 0.0065
vn -0.0100 0.9999 0.0088
vn -0.0137 0.9998 0.0127
vn -0.0035 1.0000 -0.0011
vn -0.0002 1.0000 -0.0042
vn -0.0014 1.0000 -0.0031
vn -0.0047 1.0000 0.0001
vn -0.0053 1.0000 -0.0053
g Carpet_2_plane_carpet
usemtl carpet
s 1
f 1/1/1 2/2/1 3/3/1
f 4/4/2 5/5/1 6/6/3
f 7/7/4 8/8/1 9/9/5
f 8/8/1 10/10/1 9/9/5
f 4/4/2 6/6/3 11/11/6
f 6/6/3 7/7/6 11/11/6
f 11/11/7 7/7/4 9/9/5
f 12/12/1 13/13/1 14/14/1
f 13/13/1 15/15/1 14/14/1
f 15/15/1 4/4/8 16/16/9
f 11/11/10 16/16/9 4/4/8
f 16/16/9 14/14/1 15/15/1
f 10/10/1 17/17/1 18/18/1
f 9/9/5 10/10/1 18/18/1
f 17/17/1 19/19/1 18/18/1
f 19/19/1 20/20/1 21/21/1
f 18/18/1 19/19/1 21/21/1
f 22/22/11 21/21/1 20/20/1
f 23/23/12 22/22/11 24/24/13
f 25/25/14 26/26/15 27/27/16
f 26/26/17 23/23/12 28/28/18
f 28/28/18 23/23/12 24/24/13
f 29/29/19 30/30/20 31/31/21
f 30/30/20 32/32/22 33/33/23
f 34/34/24 32/32/22 35/35/25
f 32/32/22 25/25/14 35/35/25
f 22/22/11 20/20/1 24/24/13
f 26/26/26 28/28/26 36/36/26
f 28/28/1 37/37/1 38/38/1
f 26/26/27 36/36/27 27/27/27
f 39/39/28 40/40/28 41/41/28
f 40/40/29 29/29/19 41/41/30
f 42/42/1 30/30/20 33/33/23
f 32/32/22 34/34/24 33/33/23
f 35/35/25 25/25/14 27/27/16
f 28/28/31 38/38/31 36/36/31
f 36/36/32 43/43/32 27/27/32
f 30/30/20 42/42/1 31/31/21
f 44/44/33 45/45/34 46/46/35
f 45/45/34 39/39/36 46/46/35
f 47/47/37 48/48/38 49/49/39
f 48/48/38 44/44/40 50/50/41
f 47/47/37 51/51/42 52/52/1
f 53/53/1 52/52/1 51/51/42
f 53/53/1 51/51/42 54/54/1
f 55/55/1 56/56/1 57/57/1
f 56/56/1 53/53/1 58/58/1
f 55/55/1 57/57/1 59/59/1
f 60/60/43 61/61/43 55/55/43
f 62/62/44 63/63/44 60/60/44
f 64/64/45 62/62/45 55/55/45
f 62/62/46 60/60/46 55/55/46
f 51/51/42 47/47/37 65/65/47
f 29/29/19 31/31/21 41/41/30
f 55/55/48 59/59/48 66/66/48
f 56/56/1 58/58/1 57/57/1
f 66/66/49 64/64/49 55/55/49
f 67/67/50 57/57/50 58/58/50
f 53/53/1 54/54/1 58/58/1
f 54/54/1 68/68/1 58/58/1
f 65/65/47 47/47/37 49/49/39
f 49/49/39 48/48/38 50/50/41
f 46/46/1 39/39/1 69/69/1
f 42/42/1 70/70/1 71/71/1
f 42/42/1 71/71/1 31/31/21
f 31/31/21 72/72/1 73/73/1
f 50/50/41 44/44/40 74/74/51
f 75/75/52 76/76/52 50/50/52
f 44/44/33 46/46/35 74/74/1
f 31/31/21 73/73/1 41/41/30
f 74/74/53 75/75/53 50/50/53
f 69/69/1 39/39/1 41/41/1
f 73/73/1 77/77/1 78/78/1
f 79/79/1 80/80/1 81/81/1
f 77/77/1 79/79/1 78/78/1
f 41/41/30 73/73/1 78/78/1
f 79/79/1 81/81/1 82/82/1
f 41/41/1 83/83/1 69/69/1
f 81/81/1 84/84/1 82/82/1
f 78/78/54 85/85/54 41/41/54
f 78/78/1 79/79/1 82/82/1
f 84/84/1 86/86/1 87/87/1
f 82/82/55 88/88/55 78/78/55
f 82/82/1 84/84/1 87/87/1
f 86/86/56 89/89/56 90/90/56
f 87/87/57 91/91/57 82/82/57
f 87/87/1 86/86/1 92/92/1
f 93/93/58 94/94/1 95/95/1
f 89/89/56 93/93/58 96/96/59
f 86/86/60 97/97/60 92/92/60
f 90/90/56 97/97/56 86/86/56
f 98/98/61 99/99/61 100/100/61
f 99/99/62 96/96/62 100/100/62
f 96/96/59 90/90/56 89/89/56
f 93/93/58 95/95/1 100/100/63
f 95/95/1 101/101/1 100/100/63
f 93/93/58 100/100/63 96/96/59
f 101/101/1 102/102/1 103/103/1
f 103/103/1 104/104/1 105/105/1
f 105/105/64 106/106/64 107/107/64
f 107/107/1 108/108/1 109/109/65
f 109/109/66 110/110/66 111/111/66
f 110/110/66 112/112/66 111/111/66
f 112/112/67 113/113/1 114/114/1
f 115/115/68 116/116/2 117/117/69
f 116/116/2 118/118/70 117/117/69
f 112/112/67 114/114/1 119/119/71
f 109/109/65 111/111/72 120/120/73
f 114/114/1 115/115/68 121/121/74
f 122/122/1 123/123/1 124/124/1
f 123/123/1 125/125/1 124/124/1
f 115/115/68 117/117/69 121/121/74
f 118/118/70 122/122/1 126/126/75
f 117/117/69 118/118/70 126/126/75
f 107/107/1 109/109/65 120/120/73
f 127/127/76 105/105/76 107/107/76
f 103/103/1 105/105/1 128/128/1
f 103/103/1 100/100/63 101/101/1
f 129/129/1 130/130/1 103/103/1
f 130/130/1 100/100/1 103/103/1
f 127/127/77 128/128/77 105/105/77
f 128/128/1 129/129/1 103/103/1
f 127/127/78 107/107/78 131/131/78
f 132/132/79 131/131/79 107/107/79
f 132/132/80 107/107/1 120/120/73
f 133/133/81 134/134/81 120/120/81
f 134/134/82 132/132/82 120/120/82
f 135/135/83 136/136/83 137/137/83
f 136/136/84 138/138/85 137/137/86
f 139/139/1 138/138/85 140/140/1
f 138/138/85 139/139/1 137/137/86
f 138/138/85 133/133/1 140/140/1
f 141/141/1 133/133/1 120/120/1
f 142/142/87 143/143/87 144/144/87
f 143/143/88 135/135/88 144/144/88
f 145/145/89 146/146/89 142/142/89
f 3/3/1 147/147/1 148/148/1
f 147/147/90 149/149/91 150/150/92
f 149/149/91 145/145/93 150/150/92
f 145/145/94 142/142/95 144/144/96
f 145/145/94 144/144/96 150/150/97
f 124/124/1 125/125/1 151/151/1
f 125/125/1 152/152/1 151/151/1
f 152/152/1 153/153/1 154/154/1
f 151/151/1 152/152/1 154/154/1
f 153/153/1 155/155/1 156/156/1
f 155/155/1 157/157/1 156/156/1
f 157/157/1 158/158/1 156/156/1
f 159/159/1 160/160/1 161/161/1
f 160/160/1 162/162/1 161/161/1
f 158/158/1 159/159/1 163/163/1
f 161/161/1 163/163/1 159/159/1
f 163/163/1 156/156/1 158/158/1
f 156/156/1 154/154/1 153/153/1
f 124/124/1 126/126/75 122/122/1
f 133/133/1 141/141/1 140/140/1
f 112/112/67 119/119/71 111/111/98
f 144/144/1 135/135/1 164/164/1
f 121/121/74 119/119/71 114/114/1
f 137/137/1 165/165/1 135/135/1
f 165/165/1 164/164/1 135/135/1
f 147/147/1 150/150/1 148/148/1
f 166/166/1 167/167/1 168/168/1
f 168/168/1 3/3/1 2/2/1
f 2/2/1 166/166/1 168/168/1
f 148/148/1 1/1/1 3/3/1
