# Blender v3.0.0 OBJ File: 'untitledProps.blend'
# www.blender.org
mtllib Carpet.mtl
o Carpet_Plane
v 5.135355 -0.000000 1.436716
v 5.205071 -0.000423 1.452489
v 5.287874 -0.000000 1.326896
v 5.288673 -0.005568 1.440235
v 5.242068 -0.000000 1.451219
v 5.268250 -0.003494 1.461019
v -5.110012 -0.000000 1.406828
v -5.017089 -0.000000 1.412797
v -5.310866 -0.000423 1.088081
v -4.936155 -0.000423 1.414927
v -4.798636 -0.000000 1.414503
v -5.311718 -0.000423 0.978816
v -5.308413 -0.000423 1.396041
v -5.264339 -0.000000 1.407605
v -5.312998 -0.000000 1.289364
v -5.212025 -0.000000 1.402541
v -4.563023 -0.000000 1.421332
v -4.452382 -0.000000 1.424737
v -4.373905 -0.000000 1.417914
v -5.310111 -0.001631 0.744934
v -4.246480 -0.000000 1.419623
v -5.305320 -0.000000 0.355847
v -4.149199 -0.000000 1.419623
v -5.294215 -0.000000 0.123505
v -4.016914 -0.000423 1.422607
v -3.785498 -0.000423 1.422607
v -3.938370 -0.001631 -1.353150
v -3.605448 -0.000000 1.432420
v -3.544418 -0.000000 1.429876
v -3.404265 -0.000000 1.417911
v -3.317961 -0.000000 1.419620
v -3.364957 0.000000 -1.333847
v -3.181366 -0.000000 1.412791
v -3.612396 -0.001631 -1.352298
v -5.301053 0.000000 -0.329727
v -5.301907 0.000000 -0.000384
v -4.155157 0.000000 -1.340676
v -5.308739 0.000000 -0.866009
v -4.464333 0.000000 -1.344944
v -3.095880 -0.000000 1.415330
v -3.063325 -0.000000 1.405049
v -2.969429 -0.000000 1.411942
v -3.013163 0.000000 -1.337263
v -2.725247 -0.000000 1.411942
v -2.646782 -0.000000 1.419617
v -2.376521 -0.000423 -1.335982
v -2.319238 -0.000000 1.412794
v -1.809464 -0.000000 1.423041
v -1.748072 -0.000423 1.428587
v -1.725019 0.000000 -1.339827
v -1.670310 -0.000000 1.429018
v -1.841055 -0.000423 -1.336840
v -5.362603 0.000000 -1.394332
v -5.363355 0.000000 -1.350032
v -5.209595 0.000000 -1.391041
v -5.341616 -0.000423 -1.193027
v -5.011608 0.000000 -1.375680
v -4.361832 0.000000 -1.345798
v -4.865534 -0.000423 -1.372687
v -2.060558 -0.000423 -1.322319
v -1.627704 -0.000423 1.433709
v -1.372286 -0.000000 1.443533
v -1.329975 -0.001631 -1.353150
v -2.189742 0.000000 -1.324466
v -1.343454 -0.000423 1.448219
v -0.925416 -0.000000 1.454619
v -0.305847 -0.000000 1.440964
v 0.187517 -0.000000 1.433280
v 0.086062 -0.001631 -1.350589
v 0.390275 -0.000000 1.429873
v 0.423614 -0.000000 1.424745
v -0.323677 -0.001631 -1.351444
v -0.484987 -0.001631 -1.354005
v 0.266146 -0.000423 -1.355611
v 0.512834 -0.001631 -1.350589
v 0.791340 -0.000000 1.425600
v 0.825467 -0.000000 1.429013
v 0.821091 0.000000 -1.355188
v 1.116936 -0.000000 1.428161
v 1.190126 -0.000000 1.423904
v 1.215122 0.000000 -1.356875
v 0.968902 0.000000 -1.364586
v 1.289659 -0.000000 1.416182
v 1.336617 -0.000000 1.422159
v 1.454195 -0.000000 1.413638
v 0.649420 -0.001631 -1.359979
v 1.095581 0.000000 -1.370538
v 1.783719 -0.005567 -1.388068
v 1.364030 0.000000 -1.366290
v 1.637895 -0.000000 1.423039
v 1.971572 -0.000000 1.421332
v 2.039699 -0.001631 -1.391562
v 1.911817 -0.000423 -1.392311
v 2.075702 -0.000000 1.424745
v 2.198408 -0.000423 -1.376949
v 2.223994 -0.000000 1.423893
v 2.363131 -0.000000 1.417065
v 2.633924 -0.000423 -1.373534
v 2.392247 0.000000 -1.375674
v 3.006802 0.000000 -1.375669
v 2.819917 -0.003438 -1.388500
v 2.970559 -0.000000 1.409378
v 2.835279 -0.000000 1.416210
v 3.425178 -0.000423 -1.381217
v 3.130647 0.000000 -1.379087
v 3.211760 -0.000000 1.411090
v 3.752062 -0.000423 -1.393168
v 3.481422 -0.003438 -1.387645
v 3.494350 -0.000000 1.416213
v 4.036228 -0.001631 -1.389850
v 3.859451 0.000000 -1.391890
v 5.296432 0.000000 -0.121381
v 3.756441 -0.001632 1.428687
v 4.281164 -0.000423 -1.394020
v 4.106253 -0.001631 -1.394120
v 5.287885 0.000000 -0.308508
v 5.293027 0.000000 -0.201397
v 4.500517 -0.001631 -1.393265
v 3.920860 -0.000000 1.428161
v 2.923621 -0.000000 1.417059
v 4.726757 -0.001631 -1.392414
v 5.301150 -0.005568 -0.796569
v 5.187243 0.000000 -1.407265
v 4.995648 -0.001631 -1.406071
v 5.290457 0.000000 -1.188219
v 5.291835 -0.001631 -1.080771
v 5.281081 0.000000 -1.329683
v 5.279355 0.000000 -1.366797
v 5.283161 0.000000 -1.420853
v 5.297286 0.000000 -0.899746
v 3.788995 -0.000423 1.433695
v 5.303263 0.000000 -0.452037
v 5.303263 0.000000 -0.600998
v 4.112901 -0.000000 1.424748
v 5.285321 -0.000000 0.276051
v 4.345613 -0.000000 1.418779
v 4.452407 -0.000000 1.405111
v 5.303302 -0.000000 0.416491
v 5.309142 -0.000000 0.376442
v 5.304953 -0.000000 0.708869
v 5.318646 -0.003438 0.640801
v 5.292974 -0.000000 0.523215
v 5.310097 -0.000000 0.810040
v 4.790117 -0.000000 1.408529
v 5.318201 -0.000423 0.956784
v 5.311840 -0.000000 1.141130
v 5.322869 -0.000000 1.046961
v 4.913689 -0.003438 1.423064
v 5.303310 -0.000000 1.204268
v 5.005495 -0.000000 1.431591
v 5.292977 -0.000000 1.394078
vt 0.032395 0.963499
vt 0.027963 0.969810
vt 0.068074 0.977262
vt 0.072376 0.026701
vt 0.072043 0.026897
vt 0.072412 0.026882
vt 0.042105 0.039025
vt 0.040167 0.047410
vt 0.145649 0.021094
vt 0.040167 0.054715
vt 0.039612 0.067122
vt 0.181149 0.021017
vt 0.045449 0.021315
vt 0.041854 0.025101
vt 0.080266 0.020710
vt 0.043498 0.029820
vt 0.037393 0.088382
vt 0.036287 0.098366
vt 0.038504 0.105447
vt 0.257129 0.021325
vt 0.037948 0.116945
vt 0.383540 0.021402
vt 0.037948 0.125723
vt 0.459021 0.022404
vt 0.037671 0.137660
vt 0.037671 0.158547
vt 0.937467 0.144753
vt 0.033791 0.174787
vt 0.034618 0.180294
vt 0.038505 0.192941
vt 0.037949 0.200728
vt 0.932476 0.196488
vt 0.040169 0.213054
vt 0.937191 0.174150
vt 0.606265 0.021787
vt 0.499270 0.021710
vt 0.934694 0.125185
vt 0.780488 0.021094
vt 0.936080 0.097287
vt 0.039343 0.220767
vt 0.042683 0.223705
vt 0.040444 0.232178
vt 0.933586 0.228231
vt 0.040444 0.254211
vt 0.037950 0.261291
vt 0.932477 0.285672
vt 0.040168 0.290847
vt 0.036839 0.336845
vt 0.035729 0.342393
vt 0.934418 0.344465
vt 0.034897 0.349401
vt 0.932757 0.334006
vt 0.952126 0.016233
vt 0.937734 0.016166
vt 0.951057 0.030040
vt 0.886811 0.018318
vt 0.946066 0.047905
vt 0.936359 0.106536
vt 0.944403 0.061075
vt 0.928038 0.314191
vt 0.034065 0.353255
vt 0.030181 0.376293
vt 0.937468 0.380114
vt 0.929428 0.302531
vt 0.029351 0.378905
vt 0.026580 0.416615
vt 0.031017 0.472522
vt 0.033512 0.517039
vt 0.936636 0.507891
vt 0.034619 0.535335
vt 0.036285 0.538343
vt 0.936913 0.470910
vt 0.937745 0.456356
vt 0.938854 0.524135
vt 0.936634 0.546401
vt 0.036008 0.571525
vt 0.034899 0.574603
vt 0.939409 0.574209
vt 0.035175 0.600904
vt 0.036557 0.607508
vt 0.939958 0.609763
vt 0.942462 0.587546
vt 0.039067 0.616489
vt 0.037125 0.620726
vt 0.039893 0.631336
vt 0.939685 0.558729
vt 0.944395 0.598977
vt 0.948284 0.661091
vt 0.943016 0.623200
vt 0.036841 0.647911
vt 0.037395 0.678021
vt 0.949948 0.684150
vt 0.950777 0.672632
vt 0.036285 0.687416
vt 0.945787 0.698481
vt 0.036562 0.700797
vt 0.038781 0.713352
vt 0.944677 0.737791
vt 0.946064 0.715979
vt 0.946063 0.771433
vt 0.948557 0.754575
vt 0.041278 0.768162
vt 0.039058 0.755956
vt 0.947174 0.809190
vt 0.947174 0.782608
vt 0.040721 0.789927
vt 0.951056 0.838685
vt 0.948284 0.814276
vt 0.039058 0.815426
vt 0.949390 0.864326
vt 0.951332 0.848370
vt 0.538578 0.978033
vt 0.036279 0.839118
vt 0.951332 0.886422
vt 0.950779 0.870653
vt 0.599371 0.977263
vt 0.564575 0.977727
vt 0.950501 0.906213
vt 0.035175 0.853911
vt 0.038782 0.763926
vt 0.950223 0.926638
vt 0.757909 0.977957
vt 0.956327 0.968181
vt 0.954661 0.950908
vt 0.885166 0.977495
vt 0.850240 0.977263
vt 0.931123 0.976648
vt 0.943181 0.976493
vt 0.960742 0.976836
vt 0.791448 0.978111
vt 0.034072 0.842030
vt 0.646000 0.978650
vt 0.694393 0.978649
vt 0.036285 0.871239
vt 0.409464 0.977031
vt 0.038223 0.892238
vt 0.042664 0.901874
vt 0.363839 0.978654
vt 0.376848 0.979180
vt 0.268855 0.978802
vt 0.290927 0.979568
vt 0.329167 0.977722
vt 0.235986 0.979267
vt 0.041552 0.932347
vt 0.188276 0.979806
vt 0.128423 0.979424
vt 0.159016 0.980419
vt 0.038493 0.943549
vt 0.107913 0.978654
vt 0.034062 0.951782
vt 0.030434 0.976770
vt 0.046248 0.977722
vt 0.027684 0.973128
vn 0.0034 1.0000 0.0047
vn 0.0046 1.0000 0.0064
vn 0.0035 1.0000 0.0048
vn 0.1239 0.9920 0.0227
vn 0.0011 1.0000 -0.0008
vn 0.0011 1.0000 -0.0023
vn 0.0027 1.0000 -0.0038
vn 0.0030 1.0000 -0.0034
vn 0.0037 1.0000 -0.0025
vn -0.0011 1.0000 0.0007
vn -0.0108 0.9999 0.0044
vn -0.0093 0.9999 0.0037
vn -0.0052 1.0000 0.0026
vn 0.0000 1.0000 -0.0000
vn 0.0001 1.0000 -0.0010
vn -0.0030 1.0000 0.0017
vn 0.0009 1.0000 -0.0031
vn -0.0011 1.0000 0.0010
vn 0.0004 1.0000 -0.0003
vn 0.0020 1.0000 -0.0016
vn 0.0026 1.0000 -0.0019
vn 0.0000 1.0000 -0.0004
vn 0.0004 1.0000 -0.0004
vn -0.0010 0.9997 -0.0244
vn -0.0039 1.0000 -0.0002
vn -0.0005 1.0000 -0.0004
vn -0.0009 1.0000 -0.0006
vn -0.0002 1.0000 -0.0006
vn 0.0048 1.0000 0.0042
vn 0.0009 1.0000 0.0008
vn 0.0020 1.0000 -0.0002
vn -0.0006 1.0000 -0.0011
vn 0.0003 1.0000 -0.0000
vn 0.0004 1.0000 -0.0001
vn 0.0000 1.0000 -0.0002
vn 0.0020 1.0000 0.0004
vn -0.0012 1.0000 -0.0002
vn 0.0068 1.0000 -0.0002
vn 0.0026 1.0000 0.0003
vn -0.0054 1.0000 0.0001
vn -0.0019 1.0000 -0.0001
vn 0.0001 1.0000 0.0002
vn 0.0004 1.0000 0.0007
vn 0.0001 1.0000 0.0021
vn -0.0011 1.0000 0.0004
vn 0.0022 1.0000 0.0010
vn -0.0001 1.0000 -0.0002
vn 0.0100 1.0000 -0.0002
vn 0.0077 1.0000 0.0025
vn 0.0083 1.0000 -0.0001
vn -0.0016 1.0000 -0.0006
vn 0.0005 1.0000 0.0000
vn 0.0147 0.9999 -0.0004
vn -0.0010 1.0000 -0.0004
vn -0.0005 1.0000 -0.0005
vn -0.0004 1.0000 -0.0005
vn -0.0000 1.0000 -0.0006
vn -0.0034 1.0000 -0.0002
vn 0.0024 1.0000 -0.0002
vn 0.0037 1.0000 0.0008
vn -0.0048 1.0000 -0.0004
vn -0.0047 1.0000 -0.0003
vn 0.0036 1.0000 -0.0018
vn -0.0001 1.0000 0.0000
vn 0.0080 1.0000 -0.0011
vn -0.0000 1.0000 -0.0020
vn 0.0094 1.0000 -0.0004
vn -0.0401 0.9992 0.0007
vn -0.0054 1.0000 -0.0007
vn -0.0007 1.0000 -0.0002
vn -0.0000 1.0000 -0.0001
vn -0.0075 1.0000 -0.0008
vn 0.0005 1.0000 -0.0002
vn -0.0002 1.0000 -0.0000
vn -0.0184 0.9998 -0.0002
vn 0.0161 0.9999 -0.0013
vn -0.0001 1.0000 -0.0012
vn 0.0007 1.0000 -0.0000
vn 0.0008 1.0000 -0.0000
vn -0.0112 0.9999 -0.0012
vn 0.0534 0.9986 -0.0015
vn -0.0001 1.0000 -0.0013
vn 0.0093 0.9999 -0.0106
vn 0.0064 0.9999 -0.0078
vn -0.0039 1.0000 0.0004
vn 0.0062 1.0000 0.0004
vn -0.0069 1.0000 0.0060
vn -0.0056 1.0000 0.0045
vn -0.0048 1.0000 0.0036
vn -0.0014 1.0000 0.0001
vn -0.0006 1.0000 -0.0010
vn 0.0055 1.0000 -0.0055
vn 0.0037 1.0000 -0.0042
vn -0.0099 1.0000 0.0002
vn -0.0000 1.0000 0.0066
vn -0.0004 1.0000 0.0002
vn -0.0085 1.0000 0.0040
vn -0.0005 1.0000 0.0002
vn -0.0169 0.9997 0.0154
vn -0.0510 0.9971 0.0557
vn 0.0051 0.9999 -0.0092
vn -0.0103 0.9853 -0.1706
vn -0.0020 1.0000 0.0000
vn 0.0263 0.9992 -0.0287
vn 0.1867 0.9823 -0.0120
vn 0.0025 1.0000 0.0022
vn 0.0003 1.0000 0.0003
vn 0.0031 1.0000 0.0027
vn -0.0094 1.0000 -0.0011
vn -0.0099 0.9999 -0.0017
vn -0.0116 0.9999 -0.0042
vn -0.0121 0.9999 -0.0041
vn -0.0341 0.9988 -0.0359
vn 0.0245 0.9993 0.0278
vn 0.1482 0.9801 0.1320
vn -0.0046 1.0000 0.0003
vn -0.0118 0.9999 -0.0105
g Carpet_Plane_Carpet_Plane_carpet
usemtl carpet
s 1
f 1/1/1 2/2/2 3/3/3
f 4/4/4 5/5/4 6/6/4
f 7/7/5 8/8/6 9/9/7
f 8/8/6 10/10/8 9/9/7
f 10/10/8 11/11/9 12/12/10
f 9/9/7 10/10/8 12/12/10
f 13/13/11 14/14/12 15/15/13
f 14/14/12 16/16/14 15/15/13
f 16/16/14 7/7/5 15/15/13
f 17/17/15 18/18/14 19/19/16
f 7/7/5 9/9/7 15/15/13
f 11/11/9 17/17/15 20/20/17
f 17/17/15 19/19/16 20/20/17
f 19/19/16 21/21/14 22/22/18
f 21/21/14 23/23/19 22/22/18
f 22/22/18 23/23/19 24/24/20
f 23/23/19 25/25/21 24/24/20
f 25/25/21 26/26/22 27/27/23
f 24/24/20 25/25/21 27/27/23
f 26/26/24 28/28/24 29/29/24
f 30/30/25 31/31/14 32/32/14
f 31/31/14 33/33/14 32/32/14
f 26/26/26 29/29/27 34/34/28
f 29/29/27 30/30/25 34/34/28
f 20/20/17 12/12/10 11/11/9
f 22/22/18 20/20/17 19/19/16
f 35/35/14 36/36/29 37/37/30
f 36/36/29 24/24/20 27/27/23
f 37/37/30 36/36/29 27/27/23
f 38/38/31 35/35/14 39/39/32
f 33/33/14 40/40/14 41/41/14
f 27/27/22 26/26/26 34/34/28
f 33/33/14 41/41/14 32/32/14
f 41/41/14 42/42/14 43/43/33
f 42/42/14 44/44/34 43/43/33
f 44/44/34 45/45/35 46/46/19
f 45/45/35 47/47/36 46/46/19
f 48/48/37 49/49/38 50/50/39
f 49/49/38 51/51/40 50/50/39
f 48/48/37 50/50/39 52/52/41
f 53/53/14 54/54/42 55/55/43
f 54/54/42 56/56/44 55/55/43
f 56/56/44 38/38/31 57/57/45
f 35/35/14 37/37/30 58/58/14
f 39/39/32 35/35/14 58/58/14
f 32/32/14 41/41/14 43/43/33
f 34/34/28 30/30/25 32/32/14
f 39/39/32 59/59/46 38/38/31
f 59/59/46 57/57/45 38/38/31
f 57/57/45 55/55/43 56/56/44
f 47/47/36 48/48/37 60/60/47
f 51/51/48 61/61/49 50/50/50
f 61/61/49 62/62/51 63/63/22
f 43/43/33 44/44/34 46/46/19
f 47/47/36 64/64/52 46/46/19
f 62/62/53 65/65/53 63/63/53
f 65/65/54 66/66/55 63/63/56
f 67/67/57 68/68/58 69/69/57
f 68/68/58 70/70/14 71/71/59
f 67/67/57 69/69/57 72/72/57
f 66/66/55 67/67/57 73/73/57
f 73/73/57 67/67/57 72/72/57
f 64/64/52 47/47/36 60/60/47
f 68/68/58 71/71/59 74/74/60
f 60/60/47 48/48/37 52/52/41
f 50/50/50 61/61/49 63/63/22
f 73/73/57 63/63/56 66/66/55
f 75/75/57 74/74/60 71/71/59
f 74/74/60 69/69/57 68/68/58
f 76/76/61 77/77/14 78/78/14
f 77/77/14 79/79/14 78/78/14
f 71/71/59 76/76/61 75/75/57
f 79/79/14 80/80/14 81/81/14
f 78/78/14 79/79/14 82/82/14
f 83/83/14 84/84/14 85/85/14
f 80/80/14 83/83/14 81/81/14
f 78/78/14 86/86/62 76/76/61
f 86/86/62 75/75/57 76/76/61
f 87/87/14 82/82/14 81/81/14
f 81/81/14 82/82/14 79/79/14
f 88/88/63 89/89/64 90/90/65
f 89/89/64 81/81/14 85/85/14
f 85/85/14 90/90/65 89/89/64
f 90/90/65 91/91/66 88/88/63
f 81/81/14 83/83/14 85/85/14
f 92/92/67 93/93/67 91/91/67
f 93/93/68 88/88/68 91/91/68
f 91/91/69 94/94/35 95/95/70
f 94/94/35 96/96/35 95/95/70
f 95/95/70 96/96/35 97/97/71
f 95/95/70 92/92/72 91/91/69
f 98/98/73 99/99/74 97/97/71
f 99/99/74 95/95/70 97/97/71
f 100/100/75 101/101/75 102/102/75
f 101/101/76 98/98/76 103/103/76
f 102/102/22 101/101/77 103/103/22
f 104/104/34 105/105/78 106/106/79
f 105/105/78 100/100/14 106/106/79
f 106/106/14 100/100/14 102/102/14
f 107/107/80 108/108/80 109/109/80
f 108/108/81 104/104/81 109/109/81
f 110/110/82 111/111/83 112/112/84
f 111/111/85 107/107/85 113/113/85
f 113/113/86 107/107/86 109/109/86
f 114/114/87 115/115/88 116/116/89
f 115/115/88 110/110/82 116/116/89
f 117/117/90 110/110/82 112/112/84
f 118/118/91 114/114/92 116/116/93
f 110/110/82 117/117/90 116/116/89
f 119/119/94 111/111/94 113/113/94
f 109/109/35 104/104/34 106/106/79
f 103/103/22 120/120/14 102/102/22
f 97/97/71 103/103/35 98/98/73
f 111/111/14 119/119/14 112/112/14
f 121/121/95 118/118/95 122/122/95
f 123/123/96 124/124/97 125/125/98
f 124/124/14 121/121/14 126/126/14
f 123/123/96 125/125/98 127/127/14
f 128/128/14 129/129/14 123/123/96
f 126/126/99 125/125/99 124/124/99
f 127/127/14 128/128/14 123/123/96
f 122/122/100 130/130/100 121/121/100
f 130/130/101 126/126/101 121/121/101
f 113/113/102 131/131/102 119/119/102
f 132/132/41 133/133/103 118/118/91
f 133/133/104 122/122/104 118/118/104
f 116/116/93 132/132/41 118/118/91
f 119/119/14 134/134/14 135/135/14
f 134/134/14 136/136/14 135/135/14
f 136/136/14 137/137/14 135/135/14
f 119/119/14 135/135/14 112/112/14
f 138/138/14 139/139/14 135/135/14
f 140/140/105 141/141/105 142/142/105
f 142/142/14 138/138/14 135/135/14
f 143/143/106 140/140/14 144/144/107
f 140/140/14 142/142/14 137/137/14
f 144/144/14 140/140/14 137/137/14
f 142/142/14 135/135/14 137/137/14
f 145/145/108 143/143/106 144/144/107
f 146/146/109 147/147/110 148/148/111
f 147/147/110 145/145/112 148/148/111
f 149/149/14 146/146/14 150/150/14
f 148/148/113 150/150/113 146/146/113
f 150/150/14 1/1/1 149/149/14
f 145/145/114 144/144/114 148/148/114
f 3/3/3 149/149/14 1/1/1
f 4/151/115 151/152/115 5/153/115
f 151/152/116 3/3/116 2/2/116
f 5/153/117 151/152/117 2/2/117
