# Blender v3.0.0 OBJ File: 'untitled.blend'
# www.blender.org
mtllib DetailFloor.mtl
o DetailFloor_Cube.004
v -0.444413 -0.094196 1.000000
v -0.444413 -0.094196 -1.000000
v -0.444413 -0.215043 -1.000000
v -0.444413 -0.215043 1.000000
v 0.196886 0.752304 1.000000
v 0.196886 0.898894 1.000000
v -0.444413 0.898894 1.000000
v -0.444413 0.748968 1.000000
v -0.444413 0.671112 1.000000
v -0.444413 0.671112 -1.000000
v -0.444413 0.540722 -1.000000
v -0.444413 0.540722 1.000000
v -0.109030 0.668132 -1.000000
v -0.109030 0.540722 -1.000000
v -0.444413 0.898894 -1.000000
v 0.196886 0.898894 -1.000000
v -0.444413 0.363696 -1.000000
v -0.444413 0.363696 1.000000
v 0.159783 -0.099001 -1.000000
v 0.159936 -0.175340 -1.000000
v -0.000575 0.363696 -1.000000
v -0.000575 0.363696 1.000000
v -0.000575 -0.011477 1.000000
v -0.000575 -0.011477 -1.000000
v 0.020028 0.745632 1.000000
v 0.020028 0.674092 1.000000
v -0.444413 -0.426256 1.000000
v -0.444413 -0.426256 -1.000000
v -0.444413 -0.531556 -1.000000
v -0.444413 -0.531556 1.000000
v 0.196886 -0.426256 -1.000000
v 0.196886 -0.531556 -1.000000
v 0.196886 -0.426256 1.000000
v 0.196886 -0.531556 1.000000
v -0.444413 -0.255059 1.000000
v -0.444413 -0.255059 -1.000000
v 0.167196 -0.188831 -1.000000
v 0.122249 -0.212928 -1.000000
v 0.122249 -0.386240 1.000000
v 0.122249 -0.386240 -1.000000
v 0.122249 -0.212928 1.000000
v -0.444413 -0.386240 1.000000
v -0.444413 -0.386240 -1.000000
v 0.020028 0.674092 -1.000000
v -0.109030 0.668132 1.000000
v -0.109030 0.540722 1.000000
v -0.444413 0.748968 -1.000000
v 0.126847 -0.359335 0.422380
v 0.138075 -0.353292 0.404947
v 0.138075 -0.245876 0.404947
v 0.126847 -0.239833 0.422380
v 0.159936 -0.175340 1.000000
v 0.196886 0.752304 -1.000000
v 0.020028 0.745632 -1.000000
v 0.122249 -0.212928 0.000000
v 0.126847 -0.359335 0.077620
v 0.122249 -0.386240 0.000000
v 0.126847 -0.239833 -0.077620
v 0.159783 -0.099001 1.000000
v 0.122249 -0.386240 0.500000
v -0.036581 0.533727 -1.000000
v 0.017473 0.515437 -1.000000
v 0.049450 0.487098 -1.000000
v 0.057171 0.450641 -1.000000
v 0.040108 0.408551 -1.000000
v 0.040108 0.408551 1.000000
v 0.057171 0.450641 1.000000
v 0.049450 0.487098 1.000000
v 0.017473 0.515437 1.000000
v -0.036581 0.533727 1.000000
v 0.196886 -0.125834 -1.000000
v 0.196886 -0.146374 -1.000000
v 0.126847 -0.359335 -0.922380
v 0.138075 -0.353292 -0.904947
v 0.138075 -0.353292 -0.595053
v 0.126847 -0.359335 -0.577620
v 0.138075 -0.353292 0.095053
v 0.126847 -0.239833 0.577620
v 0.122249 -0.212928 0.500000
v 0.126847 -0.359335 0.922380
v 0.126847 -0.239833 0.922380
v 0.126847 -0.239833 -0.922380
v 0.126847 -0.239833 0.077620
v 0.126847 -0.359335 0.577620
v 0.138075 -0.245876 0.095053
v 0.122249 -0.212928 -0.500000
v 0.126847 -0.239833 -0.422380
v 0.126847 -0.359335 -0.422380
v 0.122249 -0.386240 -0.500000
v 0.126847 -0.359335 -0.077620
v 0.126847 -0.239833 -0.577620
v 0.138075 -0.245876 -0.404947
v 0.138075 -0.245876 -0.095053
v 0.138075 -0.353292 -0.095053
v 0.138075 -0.353292 -0.404947
v 0.138075 -0.245876 0.595053
v 0.138075 -0.245876 0.904947
v 0.138075 -0.353292 0.904947
v 0.138075 -0.353292 0.595053
v 0.138075 -0.245876 -0.595053
v 0.138075 -0.245876 -0.904947
v 0.188190 -0.169802 -1.000000
v 0.167196 -0.188831 1.000000
v 0.188190 -0.169802 1.000000
v 0.196886 -0.146374 1.000000
v 0.165376 -0.085282 -1.000000
v 0.187657 -0.102964 -1.000000
v 0.196886 -0.125834 1.000000
v 0.187657 -0.102964 1.000000
v 0.165376 -0.085282 1.000000
vt 0.000514 0.535266
vt 0.999838 0.534573
vt 0.999838 0.551320
vt 0.000514 0.552013
vt 0.076698 0.966155
vt 0.021174 0.965796
vt 0.022745 0.722460
vt 0.079532 0.722828
vt 0.000514 0.429210
vt 0.999838 0.428517
vt 0.999838 0.446586
vt 0.000514 0.447280
vt 0.857387 0.722835
vt 0.900100 0.722867
vt 0.899041 0.832924
vt 0.857304 0.832893
vt 0.999838 0.396951
vt 0.000514 0.397644
vt 0.000514 0.308774
vt 0.999838 0.308081
vt 0.999838 0.471119
vt 0.000514 0.471812
vt 0.648747 0.722614
vt 0.646958 0.921509
vt 0.621872 0.921533
vt 0.609035 0.722572
vt 0.999838 0.174001
vt 0.000514 0.174694
vt 0.000514 0.122703
vt 0.999838 0.122010
vt 0.080447 0.881194
vt 0.106033 0.722865
vt 0.104797 0.881228
vt 0.000514 0.581283
vt 0.999838 0.580589
vt 0.999838 0.595181
vt 0.000514 0.595874
vt 0.539629 0.722498
vt 0.539406 0.933609
vt 0.504803 0.933572
vt 0.505026 0.722462
vt 0.999838 0.025482
vt 0.000514 0.023060
vt 0.000514 0.008503
vt 0.999838 0.010925
vt 0.466726 0.933607
vt 0.466503 0.722497
vt 0.501106 0.722460
vt 0.501328 0.933570
vt 0.000514 0.557558
vt 0.999838 0.556865
vt 0.617437 0.923918
vt 0.609533 0.909113
vt 0.675775 0.868751
vt 0.453550 0.909051
vt 0.799214 0.722773
vt 0.799060 0.868881
vt 0.552582 0.909053
vt 0.396599 0.909111
vt 0.410246 0.722556
vt 0.453354 0.722511
vt 0.999838 0.575044
vt 0.000514 0.575737
vt 0.999838 0.253327
vt 0.000514 0.254019
vt 0.000514 0.236116
vt 0.999838 0.235423
vt 0.901335 0.881229
vt 0.000514 0.218459
vt 0.999838 0.217766
vt 0.107091 0.832923
vt 0.207072 0.868879
vt 0.148746 0.722833
vt 0.206918 0.722772
vt 0.330357 0.868749
vt 0.357385 0.722612
vt 0.000514 0.418421
vt 0.999838 0.417728
vt 0.321841 0.038807
vt 0.345073 0.044923
vt 0.347777 0.057092
vt 0.316827 0.062071
vt 0.397097 0.722570
vt 0.384260 0.921531
vt 0.595886 0.722558
vt 0.552778 0.722512
vt 0.000514 0.288460
vt 0.999838 0.287767
vt 0.926600 0.722830
vt 0.929435 0.966155
vt 0.925686 0.881195
vt 0.527501 0.065808
vt 0.486474 0.039663
vt 0.529745 0.036268
vt 0.569644 0.062283
vt 0.983387 0.722462
vt 0.984958 0.965795
vt 0.148828 0.832891
vt 0.999838 0.684052
vt 0.000514 0.684745
vt 0.999838 0.263241
vt 0.000514 0.263933
vt 0.359174 0.921507
vt 0.000514 0.032503
vt 0.275218 0.034447
vt 0.854947 0.857087
vt 0.848918 0.874875
vt 0.839594 0.885392
vt 0.827611 0.887921
vt 0.813786 0.882289
vt 0.192346 0.882287
vt 0.178521 0.887919
vt 0.166538 0.885390
vt 0.157215 0.874873
vt 0.151186 0.857085
vt 0.638128 0.933713
vt 0.631378 0.933706
vt 0.959646 0.042489
vt 0.934115 0.046755
vt 0.830485 0.047368
vt 0.808463 0.041793
vt 0.458402 0.044336
vt 0.000514 0.066278
vt 0.229888 0.061563
vt 0.275815 0.065718
vt 0.049936 0.037101
vt 0.048488 0.062066
vt 0.999838 0.039362
vt 0.999838 0.066246
vt 0.959020 0.062647
vt 0.485777 0.061873
vt 0.229319 0.038063
vt 0.462290 0.055969
vt 0.767866 0.065992
vt 0.725557 0.062207
vt 0.730948 0.041110
vt 0.769296 0.037940
vt 0.570590 0.040330
vt 0.807992 0.062643
vt 0.704556 0.056692
vt 0.597343 0.057646
vt 0.593607 0.046199
vt 0.702405 0.045591
vt 0.204488 0.055303
vt 0.080368 0.056700
vt 0.076099 0.043750
vt 0.199843 0.043056
vt 0.834224 0.058214
vt 0.937680 0.057283
vt 0.623682 0.930835
vt 0.388695 0.923916
vt 0.382450 0.930833
vt 0.374754 0.933704
vt 0.651465 0.923355
vt 0.645646 0.930683
vt 0.368005 0.933711
vt 0.360486 0.930681
vt 0.354667 0.923352
vt 0.999838 0.087166
vt 0.000514 0.087858
vt 0.000514 0.083021
vt 0.999838 0.082329
vt 0.000514 0.097534
vt 0.999838 0.096841
vt 0.000514 0.092696
vt 0.999838 0.092003
vt 0.000514 0.208373
vt 0.999838 0.207679
vt 0.000514 0.200465
vt 0.999838 0.199771
vt 0.000514 0.194544
vt 0.999838 0.193850
vt 0.000514 0.189379
vt 0.999838 0.188686
vt 0.000514 0.183085
vt 0.999838 0.182392
vt 0.000514 0.078184
vt 0.999838 0.077491
vt 0.000514 0.073346
vt 0.999838 0.072653
vn -1.0000 0.0000 0.0000
vn 0.0000 0.0000 1.0000
vn 0.0000 0.0000 -1.0000
vn 0.0000 1.0000 0.0000
vn 1.0000 0.0000 0.0000
vn 0.0461 -0.9989 -0.0000
vn 0.8407 0.0000 0.5415
vn 0.9963 0.0851 -0.0076
vn 0.9993 -0.0349 -0.0121
vn 0.9948 -0.1015 0.0119
vn 0.9993 0.0349 0.0121
vn 0.0000 -1.0000 -0.0000
vn 0.4725 0.8813 0.0000
vn 0.4739 -0.8806 -0.0000
vn 0.9959 0.0851 0.0295
vn 0.9959 0.0851 -0.0295
vn 0.9971 0.0755 -0.0000
vn 0.9960 -0.0846 0.0297
vn 0.9959 -0.0851 0.0295
vn 0.9979 0.0494 0.0420
vn 0.9948 -0.1015 -0.0000
vn 0.9934 -0.1127 -0.0198
vn 0.9973 0.0634 -0.0371
vn 0.9979 -0.0494 -0.0420
vn 0.9926 0.1205 -0.0170
vn 0.4739 0.8806 0.0000
vn 0.9926 -0.1205 0.0170
vn 0.0377 -0.9993 -0.0000
vn 0.8407 0.0000 -0.5415
vn 0.9948 -0.1014 0.0119
vn 0.9993 0.0348 0.0121
vn 0.9993 -0.0348 -0.0121
vn 0.9781 0.2080 0.0000
vn 0.9810 -0.1940 -0.0000
vn 0.4064 0.9137 0.0000
vn 0.4371 0.8994 0.0000
vn 0.7896 0.6136 0.0000
vn 0.0961 0.9954 0.0000
vn 0.1960 0.9806 0.0000
vn 0.4765 0.8792 0.0000
vn 0.8527 0.5224 0.0000
vn 0.9930 -0.1181 -0.0000
vn 0.8330 -0.5532 -0.0000
vn 0.7407 -0.6718 -0.0000
vn 0.8195 -0.5731 -0.0000
vn 0.5816 -0.8135 -0.0000
vn 0.5474 -0.8369 -0.0000
vn 0.4725 -0.8813 -0.0000
g DetailFloor_Cube.004_DetailFloor_Cube.004_Detail
usemtl Detail
s off
f 1/1/1 2/2/1 3/3/1 4/4/1
f 5/5/2 6/6/2 7/7/2 8/8/2
f 9/9/1 10/10/1 11/11/1 12/12/1
f 11/13/3 10/14/3 13/15/3 14/16/3
f 15/17/4 7/18/4 6/19/4 16/20/4
f 12/12/1 11/11/1 17/21/1 18/22/1
f 2/23/3 19/24/3 20/25/3 3/26/3
f 21/27/5 22/28/5 23/29/5 24/30/5
f 25/31/2 8/8/2 9/32/2 26/33/2
f 27/34/1 28/35/1 29/36/1 30/37/1
f 28/38/3 31/39/3 32/40/3 29/41/3
f 31/42/5 33/43/5 34/44/5 32/45/5
f 33/46/2 27/47/2 30/48/2 34/49/2
f 35/50/1 4/4/1 3/3/1 36/51/1
f 20/25/3 37/52/3 38/53/3
f 24/54/3 19/24/3 2/23/3
f 39/55/2 27/47/2 33/46/2
f 17/56/3 21/57/3 24/54/3 2/23/3
f 18/22/1 17/21/1 2/2/1 1/1/1
f 28/38/3 40/58/3 31/39/3
f 39/55/2 41/59/2 35/60/2 42/61/2
f 35/50/1 36/51/1 43/62/1 42/63/1
f 44/64/6 26/65/6 45/66/6 13/67/6
f 10/14/3 44/68/3 13/15/3
f 13/67/5 45/66/5 46/69/5 14/70/5
f 45/71/2 26/33/2 9/32/2
f 22/72/2 12/73/2 18/74/2
f 27/34/1 42/63/1 43/62/1 28/35/1
f 23/75/2 22/72/2 18/74/2 1/76/2
f 8/77/1 47/78/1 10/10/1 9/9/1
f 48/79/7 49/80/7 50/81/7 51/82/7
f 4/83/2 41/59/2 52/84/2
f 36/85/3 38/53/3 40/58/3 43/86/3
f 16/20/5 6/19/5 5/87/5 53/88/5
f 25/31/2 5/5/2 8/8/2
f 47/89/3 53/90/3 54/91/3
f 55/92/8 56/93/9 57/94/10 58/95/11
f 10/14/3 47/89/3 54/91/3 44/68/3
f 15/96/3 16/97/3 53/90/3 47/89/3
f 45/71/2 9/32/2 12/73/2 46/98/2
f 32/99/12 34/100/12 30/37/12 29/36/12
f 54/101/5 25/102/5 26/65/5 44/64/5
f 17/56/3 11/13/3 21/57/3
f 59/103/2 23/75/2 1/76/2
f 39/104/13 33/43/13 60/105/13
f 14/16/3 61/106/3 11/13/3
f 61/106/3 62/107/3 11/13/3
f 62/107/3 63/108/3 11/13/3
f 63/108/3 64/109/3 11/13/3
f 64/109/3 65/110/3 11/13/3
f 65/110/3 21/57/3 11/13/3
f 22/72/2 66/111/2 12/73/2
f 66/111/2 67/112/2 12/73/2
f 67/112/2 68/113/2 12/73/2
f 68/113/2 69/114/2 12/73/2
f 69/114/2 70/115/2 12/73/2
f 70/115/2 46/98/2 12/73/2
f 7/18/1 15/17/1 47/78/1 8/77/1
f 19/24/3 71/116/3 72/117/3 20/25/3
f 73/118/14 74/119/14 75/120/14 76/121/14
f 56/93/14 77/122/14 49/80/14 48/79/14
f 41/123/15 78/124/16 79/125/17
f 41/123/15 39/104/18 80/126/19 81/127/20
f 60/105/21 80/126/19 39/104/18
f 40/128/22 38/129/23 82/130/16 73/118/24
f 60/105/21 48/79/19 51/82/20 79/125/17
f 79/125/17 83/131/25 55/92/8
f 60/105/21 79/125/17 78/124/16 84/132/24
f 51/82/26 50/81/26 85/133/26 83/131/26
f 86/134/17 87/135/16 88/136/24 89/137/21
f 89/137/21 90/138/27 57/94/10
f 55/92/8 87/135/16 86/134/17
f 86/134/17 82/130/16 38/129/23
f 40/128/22 76/121/19 89/137/21
f 57/94/10 48/79/19 60/105/21
f 86/134/17 89/137/21 76/121/19 91/139/20
f 85/133/5 50/81/5 49/80/5 77/122/5
f 92/140/5 93/141/5 94/142/5 95/143/5
f 96/144/5 97/145/5 98/146/5 99/147/5
f 53/88/28 5/87/28 25/102/28 54/101/28
f 90/138/7 94/142/7 93/141/7 58/95/7
f 91/139/26 100/148/26 101/149/26 82/130/26
f 76/121/7 75/120/7 100/148/7 91/139/7
f 78/124/29 96/144/29 99/147/29 84/132/29
f 58/95/26 93/141/26 92/140/26 87/135/26
f 81/127/26 97/145/26 96/144/26 78/124/26
f 84/132/14 99/147/14 98/146/14 80/126/14
f 80/126/7 98/146/7 97/145/7 81/127/7
f 82/130/29 101/149/29 74/119/29 73/118/29
f 87/135/29 92/140/29 95/143/29 88/136/29
f 83/131/29 85/133/29 77/122/29 56/93/29
f 88/136/14 95/143/14 94/142/14 90/138/14
f 72/117/3 102/150/3 20/25/3
f 102/150/3 37/52/3 20/25/3
f 103/151/2 104/152/2 52/84/2
f 104/152/2 105/153/2 52/84/2
f 106/154/3 107/155/3 19/24/3
f 107/155/3 71/116/3 19/24/3
f 108/156/2 109/157/2 59/103/2
f 109/157/2 110/158/2 59/103/2
f 105/153/2 108/156/2 59/103/2 52/84/2
f 38/53/3 36/85/3 3/26/3
f 3/26/3 20/25/3 38/53/3
f 24/54/3 106/154/3 19/24/3
f 39/55/2 42/61/2 27/47/2
f 28/38/3 43/86/3 40/58/3
f 35/60/2 41/59/2 4/83/2
f 41/59/2 103/151/2 52/84/2
f 59/103/2 110/158/2 23/75/2
f 41/123/15 81/127/20 78/124/16
f 60/105/21 84/132/24 80/126/19
f 79/125/17 51/82/20 83/131/25
f 57/94/30 90/138/27 58/95/11
f 89/137/21 88/136/24 90/138/27
f 55/92/8 58/95/31 87/135/16
f 86/134/17 91/139/20 82/130/16
f 40/128/22 73/118/24 76/121/19
f 57/94/10 56/93/32 48/79/19
f 55/92/8 83/131/25 56/93/9
f 4/83/2 52/84/2 59/103/2 1/76/2
f 101/149/5 100/148/5 75/120/5 74/119/5
f 60/105/13 33/43/13 57/94/13
f 31/42/13 40/128/13 89/137/13
f 89/137/13 57/94/13 31/42/13
f 31/42/13 57/94/13 33/43/13
s 1
f 71/159/33 108/160/33 105/161/34 72/162/34
f 24/30/35 23/29/35 110/163/36 106/164/36
f 109/165/37 108/160/33 71/159/33 107/166/37
f 46/69/38 70/167/39 61/168/39 14/70/38
f 70/167/39 69/169/40 62/170/40 61/168/39
f 69/169/40 68/171/41 63/172/41 62/170/40
f 68/171/41 67/173/42 64/174/42 63/172/41
f 67/173/42 66/175/43 65/176/43 64/174/42
f 66/175/43 22/28/44 21/27/44 65/176/43
f 105/161/34 104/177/45 102/178/45 72/162/34
f 104/177/45 103/179/46 37/180/47 102/178/45
f 110/163/36 109/165/37 107/166/37 106/164/36
f 41/123/48 79/125/48 37/180/47
f 37/180/47 103/179/46 41/123/48
f 79/125/48 55/92/48 37/180/47
f 55/92/48 86/134/48 37/180/47
f 86/134/48 38/129/48 37/180/47
