# Blender v3.0.0 OBJ File: 'untitled.blend'
# www.blender.org
mtllib Floor_Var1.mtl
o Floor_Var1_Cube.001
v -2.430410 -0.143498 3.375456
v -2.430410 0.079147 3.375456
v -2.430410 -0.143498 -2.624543
v -2.430410 0.079147 -2.624543
v 3.569590 -0.143498 3.375456
v 3.569590 0.079147 3.375456
v 3.569590 -0.143498 -2.624543
v 3.569590 0.079147 -2.624543
v -0.789439 -0.143498 -2.624543
v -0.789439 0.079147 -2.624543
v -0.789439 -0.143498 3.375456
v -0.789439 0.079147 3.375456
v -0.349740 0.079147 -2.624543
v -0.349740 -0.143498 3.375456
v -0.349740 -0.143498 -2.624543
v -0.349740 0.079147 3.375456
v -2.430410 -0.143498 0.375456
v -2.430410 0.079147 0.375456
v 3.569590 -0.143498 0.375456
v 3.569590 0.079147 0.375456
v -0.789439 0.079147 0.375456
v -0.349740 0.079147 0.375456
v -2.430410 0.079147 -1.124543
v 3.569590 -0.143498 -1.124543
v -2.430410 -0.143498 -1.124543
v 3.569590 0.079147 -1.124543
v -0.789439 0.079147 -1.124543
v -0.349740 0.079147 -1.124543
v -0.789439 0.079147 -1.124543
v -0.349740 0.079147 -1.124543
v -0.787910 0.148665 0.368107
v -0.351270 0.148665 0.368107
vt 1.000000 0.250000
vt 0.968082 0.250000
vt 0.968082 0.000000
vt 1.000000 0.000000
vt 0.965036 0.653222
vt 0.933118 0.653222
vt 0.933119 0.000000
vt 0.965036 0.000000
vt 0.895109 0.500000
vt 0.863191 0.500000
vt 0.863191 0.000000
vt 0.895109 0.000000
vt 0.930073 0.273495
vt 0.898155 0.273495
vt 0.898155 0.000000
vt 0.930072 0.000000
vt 0.624900 0.500000
vt 0.860145 0.500000
vt 0.860145 1.000000
vt 0.624900 1.000000
vt 0.561865 0.500000
vt 0.561865 1.000000
vt 0.930073 0.346778
vt 0.898155 0.346778
vt 0.965036 1.000000
vt 0.933118 1.000000
vt 0.933118 0.726505
vt 0.965036 0.726505
vt 0.930072 1.000000
vt 0.898155 1.000000
vt 0.000000 0.500000
vt 0.000000 1.000000
vt 0.000000 0.250000
vt 0.561865 0.250000
vt 0.624900 0.250000
vt 0.860145 0.250000
vt 0.895109 0.750000
vt 0.863191 0.750000
vt 1.000000 1.000000
vt 0.968082 1.000000
vt 0.968082 0.500000
vt 1.000000 0.500000
vt 0.895109 1.000000
vt 0.863191 1.000000
vt 0.624900 0.000000
vt 0.860145 0.000000
vt 0.561865 0.000000
vt 0.000000 0.000000
vt 0.624900 0.250000
vt 0.561865 0.250000
vt 0.562160 0.250000
vt 0.624605 0.250000
vt 0.621844 0.499145
vt 0.564921 0.499145
vt 0.627031 0.250000
vt 0.627031 0.500000
vt 0.629426 0.499145
vt 0.627031 0.250000
vt 0.621996 0.500100
vt 0.564768 0.500100
vt 0.564768 0.505521
vt 0.621996 0.505521
vt 0.558959 0.500000
vt 0.558959 0.250000
vt 0.558959 0.250000
vt 0.556302 0.499023
vn -1.0000 0.0000 0.0000
vn 0.0000 0.0000 -1.0000
vn 1.0000 0.0000 0.0000
vn 0.0000 0.0000 1.0000
vn 0.0000 1.0000 0.0000
vn 0.0000 0.9989 -0.0465
vn -0.9998 0.0220 0.0000
vn 0.0000 0.1051 0.9945
vn 0.9998 0.0220 0.0000
g Floor_Var1_Cube.001_Floor
usemtl Floor
s off
f 25/1/1 23/2/1 4/3/1 3/4/1
f 15/5/2 13/6/2 8/7/2 7/8/2
f 19/9/3 20/10/3 6/11/3 5/12/3
f 11/13/4 12/14/4 2/15/4 1/16/4
f 21/17/5 18/18/5 2/19/5 12/20/5
f 22/21/5 21/17/5 12/20/5 16/22/5
f 14/23/4 16/24/4 12/14/4 11/13/4
f 3/25/2 4/26/2 10/27/2 9/28/2
f 5/29/4 6/30/4 16/24/4 14/23/4
f 20/31/5 22/21/5 16/22/5 6/32/5
f 9/28/2 10/27/2 13/6/2 15/5/2
f 26/33/5 28/34/5 22/21/5 20/31/5
f 27/35/5 23/36/5 18/18/5 21/17/5
f 24/37/3 26/38/3 20/10/3 19/9/3
f 1/39/1 2/40/1 18/41/1 17/42/1
f 7/43/3 8/44/3 26/38/3 24/37/3
f 10/45/5 4/46/5 23/36/5 27/35/5
f 13/47/5 10/45/5 27/35/5 28/34/5
f 8/48/5 13/47/5 28/34/5 26/33/5
f 17/42/1 18/41/1 23/2/1 25/1/1
f 28/34/4 27/35/4 29/49/4 30/50/4
f 30/51/6 29/52/6 31/53/6 32/54/6
f 27/55/7 21/56/7 31/57/7 29/58/7
f 21/59/8 22/60/8 32/61/8 31/62/8
f 22/63/9 28/64/9 30/65/9 32/66/9
