# Blender v3.0.0 OBJ File: 'untitled.blend'
# www.blender.org
mtllib InnerWallDoor.mtl
o InerWallDoor_Cube.005
v -1.100000 -2.587786 0.101615
v -1.100000 2.472214 0.101615
v -1.100000 -2.587786 -0.101615
v -1.100000 2.472214 -0.101615
v 1.100000 -2.587786 0.101615
v 1.100000 2.472214 0.101615
v 1.100000 -2.587786 -0.101615
v 1.100000 2.472214 -0.101615
v 0.932956 -2.587786 -0.101615
v -0.932955 -2.587786 -0.101615
v -0.932955 2.472214 -0.101615
v 0.932956 2.472214 -0.101615
v -0.932955 -2.587786 0.101615
v 0.932956 -2.587786 0.101615
v 0.932956 2.472214 0.101615
v -0.932955 2.472214 0.101615
v -1.100000 2.307591 0.101615
v -1.100000 2.307591 -0.101615
v 1.100000 2.307591 -0.101615
v 1.100000 2.307591 0.101615
v 0.932956 2.307591 0.101615
v -0.932955 2.307591 0.101615
v -0.932955 2.307591 -0.101615
v 0.932956 2.307591 -0.101615
v -1.100000 -2.449156 -0.101615
v 1.100000 -2.449156 -0.101615
v 1.100000 -2.449156 0.101615
v 0.932956 -2.449156 0.101615
v -0.932955 -2.449156 0.101615
v -0.932955 -2.449156 -0.101615
v 0.932956 -2.449156 -0.101615
v -1.100000 -2.449156 0.101615
v -1.100000 -2.449156 -0.177229
v -1.100000 -2.587786 -0.177229
v -0.932955 -2.587786 -0.177229
v 1.100000 -2.449156 -0.177229
v 1.100000 -2.587786 -0.177229
v 1.100000 -2.449156 0.177229
v 1.100000 -2.587786 0.177229
v 0.932956 -2.587786 0.177229
v 0.932956 -2.587786 -0.177229
v -1.100000 -2.587786 0.177229
v -0.932955 -2.587786 0.177229
v 0.932956 -2.449156 0.177229
v -0.932955 -2.449156 0.177229
v -0.932955 -2.449156 -0.177229
v 0.932956 -2.449156 -0.177229
v -1.100000 -2.449156 0.177229
v -1.100000 2.307591 0.155365
v -1.100000 2.472214 0.155365
v 0.932956 2.472214 -0.155365
v 1.100000 2.472214 -0.155365
v -0.932955 2.472214 0.155365
v -1.100000 2.472214 -0.155365
v -0.932955 2.472214 -0.155365
v 1.100000 2.472214 0.155365
v 0.932956 2.472214 0.155365
v -1.100000 2.307591 -0.155365
v 1.100000 2.307591 -0.155365
v 1.100000 2.307591 0.155365
v 0.932956 2.307591 0.155365
v -0.932955 2.307591 0.155365
v -0.932955 2.307591 -0.155365
v 0.932956 2.307591 -0.155365
v 0.310985 -2.587786 -0.101615
v -0.310985 -2.587786 -0.101615
v -0.310985 2.472214 -0.101615
v 0.310985 2.472214 -0.101615
v -0.310985 -2.587786 0.101615
v 0.310985 -2.587786 0.101615
v 0.310985 2.472214 0.101615
v -0.310985 2.472214 0.101615
v 0.310985 -2.449156 0.101615
v -0.310985 -2.449156 0.101615
v -0.310985 -2.449156 -0.101615
v 0.310985 -2.449156 -0.101615
v -0.310985 2.307591 -0.101615
v 0.310985 2.307591 -0.101615
v 0.310985 2.307591 0.101615
v -0.310985 2.307591 0.101615
v 0.310985 -2.587786 -0.177229
v -0.310985 -2.587786 -0.177229
v -0.310985 -2.587786 0.177229
v 0.310985 -2.587786 0.177229
v 0.310985 -2.449156 0.177229
v -0.310985 -2.449156 0.177229
v -0.310985 -2.449156 -0.177229
v 0.310985 -2.449156 -0.177229
v -0.310985 2.472214 -0.155365
v 0.310985 2.472214 -0.155365
v 0.310985 2.472214 0.155365
v -0.310985 2.472214 0.155365
v -0.310985 2.307591 -0.155365
v 0.310985 2.307591 -0.155365
v 0.310985 2.307591 0.155365
v -0.310985 2.307591 0.155365
v 0.839518 1.294804 -0.067628
v -0.839518 1.294804 -0.067628
v -0.839518 1.294804 0.067628
v 0.839518 1.294804 0.067628
v 0.883056 0.722442 -0.067628
v -0.883056 0.722442 -0.067628
v -0.883056 0.722442 0.067628
v 0.883056 0.722442 0.067628
v 0.938912 1.329062 -0.067628
v -0.938912 1.329062 -0.067628
v -0.938912 1.329062 0.067628
v 0.938912 1.329062 0.067628
v 0.938912 2.316701 -0.067628
v -0.938912 2.316701 -0.067628
v -0.938912 2.316701 0.067628
v 0.938912 2.316701 0.067628
v 0.224487 2.316701 -0.067628
v -0.224487 2.316701 -0.067628
v -0.224487 2.316701 0.067628
v 0.224487 2.316701 0.067628
v 0.728148 1.623060 -0.067628
v 0.618524 1.802520 -0.067628
v -0.618524 1.802520 -0.067628
v -0.728148 1.623060 -0.067628
v -0.728148 1.623060 0.067628
v -0.618524 1.802520 0.067628
v 0.618524 1.802520 0.067628
v 0.728148 1.623060 0.067628
v 0.385954 1.975494 0.067628
v 0.562064 1.860789 0.067628
v -0.562064 1.860789 0.067628
v -0.385954 1.975494 0.067628
v -0.385954 1.975494 -0.067628
v -0.562064 1.860789 -0.067628
v 0.562064 1.860789 -0.067628
v 0.385954 1.975494 -0.067628
v 0.000000 2.071880 0.067628
v 0.225813 2.034575 0.067628
v -0.225812 2.034575 0.067628
v 0.000000 2.071880 -0.067628
v -0.225812 2.034575 -0.067628
v 0.225813 2.034575 -0.067628
v 0.883056 -2.393317 -0.067628
v -0.883056 -2.393317 -0.067628
v -0.883056 -2.393317 0.067628
v 0.883056 -2.393317 0.067628
v 0.991719 -2.584801 -0.067628
v -0.991718 -2.584801 -0.067628
v -0.991718 -2.584801 0.067628
v 0.991719 -2.584801 0.067628
vt 0.096734 0.906985
vt 0.011889 1.000000
vt 0.084022 0.895097
vt 0.434668 1.000000
vt 0.349823 0.906985
vt 0.362535 0.895097
vt 0.434668 0.798503
vt 0.387216 0.858484
vt 0.412290 0.791514
vt 0.623176 1.000000
vt 0.622878 0.942441
vt 0.673718 0.950052
vt 0.724260 1.000000
vt 0.724558 0.942441
vt 0.760613 0.930387
vt 0.484706 0.791513
vt 0.509781 0.858484
vt 0.462329 0.798503
vt 0.474904 0.674741
vt 0.273820 1.000000
vt 0.274119 0.942441
vt 0.310173 0.930387
vt 0.885108 0.798503
vt 0.862730 0.791514
vt 0.872532 0.674741
vt 0.885108 1.000000
vt 0.800263 0.906985
vt 0.812974 0.895097
vt 0.462329 1.000000
vt 0.586823 0.930387
vt 0.837656 0.858484
vt 0.034267 0.791513
vt 0.011889 0.798503
vt 0.024464 0.674741
vt 0.422092 0.674741
vt 0.547173 0.906985
vt 0.534462 0.895097
vt 0.136384 0.930387
vt 0.172737 1.000000
vt 0.172438 0.942441
vt 0.223278 0.950052
vt 0.059341 0.858484
vt 0.872532 0.039066
vt 0.474904 0.039066
vt 0.450440 0.000000
vt 0.896997 0.000000
vt 0.422092 0.039066
vt 0.024465 0.039066
vt 0.000000 0.000000
vt 0.446557 0.000000
vt 0.965666 0.803885
vt 0.935214 0.803885
vt 0.935214 0.733450
vt 0.965666 0.733450
vt 0.900879 0.733450
vt 0.900879 0.617861
vt 0.931331 0.617861
vt 0.931331 0.733450
vt 0.935214 0.617861
vt 0.965666 0.617861
vt 0.900879 0.858992
vt 0.900879 0.844730
vt 0.931331 0.844730
vt 0.931331 0.858992
vt 1.000000 0.402234
vt 1.000000 0.436081
vt 0.969548 0.436081
vt 0.969548 0.402234
vt 1.000000 0.558662
vt 0.969548 0.558662
vt 0.969548 0.527603
vt 1.000000 0.527603
vt 0.965666 0.858992
vt 0.935214 0.858992
vt 0.935214 0.844730
vt 0.965666 0.844730
vt 0.900879 0.803885
vt 0.931331 0.803885
vt 0.969548 0.363839
vt 1.000000 0.363839
vt 1.000000 0.591644
vt 0.969548 0.591644
vt 1.000000 0.482722
vt 0.969548 0.482722
vt 0.900879 0.000000
vt 0.931331 0.000000
vt 0.935214 0.000000
vt 0.965666 0.000000
vt 1.000000 0.000000
vt 1.000000 0.360321
vt 0.969548 0.360321
vt 0.969548 0.000000
vt 0.159760 0.967466
vt 0.159760 1.000000
vt 0.110653 1.000000
vt 0.110653 0.967466
vt 0.764414 0.278851
vt 0.764414 0.401770
vt 0.751427 0.401770
vt 0.751427 0.278851
vt 0.067377 0.967466
vt 0.067377 1.000000
vt 0.018270 1.000000
vt 0.018270 0.967466
vt 0.080364 0.967466
vt 0.080364 1.000000
vt 0.644604 0.401770
vt 0.644604 0.434783
vt 0.595498 0.434783
vt 0.595498 0.401770
vt 0.813520 0.401770
vt 0.813520 0.434783
vt 0.764414 0.434783
vt 0.813520 0.000000
vt 0.813520 0.033013
vt 0.764414 0.033013
vt 0.764414 0.000000
vt 0.813520 0.278851
vt 0.644604 0.000000
vt 0.644604 0.033013
vt 0.595498 0.033013
vt 0.595498 0.000000
vt 0.644604 0.278851
vt 0.595498 0.278851
vt 0.751427 0.434783
vt 0.731704 0.033013
vt 0.731704 0.000000
vt 0.744691 0.000000
vt 0.744691 0.033013
vt 0.751427 0.033013
vt 0.751427 0.000000
vt 0.097666 1.000000
vt 0.097666 0.967466
vt 0.431010 0.000000
vt 0.431010 0.940068
vt 0.390647 0.940068
vt 0.390647 0.000000
vt 0.478109 0.000000
vt 0.478108 0.940068
vt 0.437746 0.940068
vt 0.437746 0.000000
vt 0.383912 0.000000
vt 0.383911 0.940068
vt 0.343549 0.940068
vt 0.343549 0.000000
vt 0.067377 0.027397
vt 0.018270 0.027397
vt 0.336813 0.000000
vt 0.336813 0.940068
vt 0.296450 0.940068
vt 0.296450 0.000000
vt 0.159760 0.027397
vt 0.110653 0.027397
vt 0.159760 0.000000
vt 0.110653 0.000000
vt 0.503115 0.278851
vt 0.503115 0.401770
vt 0.484844 0.401770
vt 0.484844 0.278851
vt 0.067377 0.000000
vt 0.018270 0.000000
vt 0.662875 0.401770
vt 0.662875 0.434783
vt 0.503115 0.000000
vt 0.503115 0.033013
vt 0.484844 0.033013
vt 0.484844 0.000000
vt 0.662875 0.000000
vt 0.662875 0.033013
vt 0.503115 0.434783
vt 0.484844 0.434783
vt 0.092383 0.027397
vt 0.092383 0.000000
vt 0.184766 0.940068
vt 0.184766 0.000000
vt 0.233872 0.000000
vt 0.233872 0.940068
vt 0.552221 0.278851
vt 0.552221 0.401770
vt 0.289714 0.000000
vt 0.289714 0.940068
vt 0.240608 0.940068
vt 0.240608 0.000000
vt 1.000000 0.033013
vt 0.966503 0.033013
vt 0.966503 0.000000
vt 1.000000 0.000000
vt 0.959767 0.033013
vt 0.926270 0.033013
vt 0.926270 0.000000
vt 0.959767 0.000000
vt 0.959767 0.434783
vt 0.926270 0.434783
vt 0.926270 0.401770
vt 0.959767 0.401770
vt 0.959767 0.155932
vt 0.926270 0.155932
vt 1.000000 0.434783
vt 0.966503 0.434783
vt 0.966503 0.401770
vt 1.000000 0.401770
vt 1.000000 0.155932
vt 0.966503 0.155932
vt 0.644604 0.155932
vt 0.662875 0.155932
vt 0.085647 0.000000
vt 0.085647 0.027397
vt 0.552221 0.434783
vt 0.570491 0.401770
vt 0.570491 0.434783
vt 0.178030 0.000000
vt 0.178030 0.027397
vt 0.552221 0.155932
vt 0.552221 0.033013
vt 0.570492 0.033013
vt 0.570491 0.155932
vt 0.577227 0.033013
vt 0.577227 0.000000
vt 0.552221 0.000000
vt 0.570492 0.000000
vt 0.000000 0.027397
vt 0.000000 0.000000
vt 0.577227 0.401770
vt 0.577227 0.278851
vt 0.577227 0.434783
vt 0.873021 0.033013
vt 0.833244 0.033013
vt 0.833244 0.000000
vt 0.873021 0.000000
vt 0.919535 0.033013
vt 0.879757 0.033013
vt 0.879757 0.000000
vt 0.919535 0.000000
vt 0.919535 0.434783
vt 0.879757 0.434783
vt 0.879757 0.401770
vt 0.919535 0.401770
vt 0.919535 0.155932
vt 0.879757 0.155932
vt 0.873021 0.434783
vt 0.833244 0.434783
vt 0.833244 0.401770
vt 0.873021 0.401770
vt 0.873021 0.155932
vt 0.833244 0.155932
vt 0.682598 0.278851
vt 0.682598 0.401770
vt 0.669610 0.401770
vt 0.669610 0.278851
vt 0.826508 0.000000
vt 0.826508 0.033013
vt 0.005283 1.000000
vt 0.005283 0.967466
vt 0.682598 0.434783
vt 0.669610 0.434783
vt 0.682598 0.000000
vt 0.682598 0.033013
vt 0.669610 0.033013
vt 0.669610 0.000000
vt 0.826508 0.401770
vt 0.826508 0.434783
vt 0.813520 0.155932
vt 0.826508 0.155932
vt 0.172747 0.967466
vt 0.172747 1.000000
vt 0.731704 0.434783
vt 0.731704 0.401770
vt 0.744691 0.401770
vt 0.744691 0.434783
vt 0.731704 0.155932
vt 0.744691 0.155932
vt 0.682598 0.155932
vt 0.731704 0.278851
vt 0.744691 0.278851
vt 0.826508 0.278851
vt 0.669610 0.155932
vt 0.833244 0.278851
vt 0.873021 0.278851
vt 0.879757 0.278851
vt 0.919535 0.278851
vt 0.595498 0.155932
vt 0.577227 0.155932
vt 0.570491 0.278851
vt 0.662875 0.278851
vt 0.966503 0.278851
vt 1.000000 0.278851
vt 0.926270 0.278851
vt 0.959767 0.278851
vt 0.503115 0.155932
vt 0.484844 0.155932
vt 0.764414 0.155932
vt 0.751427 0.155932
vn 0.0000 0.0000 -1.0000
vn 0.0000 0.0000 1.0000
vn 0.9057 -0.4239 0.0000
vn 0.9798 -0.2001 0.0000
vn -0.9798 -0.2001 0.0000
vn -0.9993 -0.0380 0.0000
vn 0.9993 -0.0380 0.0000
vn -0.6359 -0.7717 0.0000
vn -0.7906 -0.6123 0.0000
vn -0.4488 -0.8937 0.0000
vn -0.2557 -0.9668 0.0000
vn 0.4488 -0.8937 0.0000
vn 0.2557 -0.9668 0.0000
vn 0.6359 -0.7717 0.0000
vn 0.7906 -0.6123 0.0000
vn -0.9057 -0.4239 0.0000
vn -0.0000 -1.0000 0.0000
vn -1.0000 0.0000 0.0000
vn 1.0000 0.0000 0.0000
vn 0.0000 1.0000 0.0000
vn -0.9738 0.0000 -0.2273
vn -0.9738 0.0000 -0.2274
vn 0.0000 0.9769 -0.2139
vn 0.9738 0.0000 -0.2273
vn 0.9738 0.0000 0.2273
g InerWallDoor_Cube.005_WoodBoard
usemtl WoodBoard
s off
f 131/1/1 109/2/1 118/3/1
f 110/4/1 130/5/1 119/6/1
f 106/7/1 120/8/1 98/9/1
f 115/10/2 135/11/2 133/12/2
f 116/13/2 134/14/2 125/15/2
f 99/16/2 121/17/2 107/18/2
f 99/16/2 107/18/2 103/19/2
f 114/20/1 137/21/1 129/22/1
f 108/23/2 100/24/2 104/25/2
f 112/26/2 126/27/2 123/28/2
f 111/29/2 128/30/2 115/10/2
f 115/10/2 133/12/2 116/13/2
f 112/26/2 124/31/2 108/23/2
f 121/17/2 111/29/2 107/18/2
f 108/23/2 124/31/2 100/24/2
f 116/13/2 125/15/2 112/26/2
f 97/32/1 105/33/1 101/34/1
f 106/7/1 98/9/1 102/35/1
f 127/36/2 111/29/2 122/37/2
f 109/2/1 132/38/1 113/39/1
f 113/39/1 138/40/1 136/41/1
f 113/39/1 136/41/1 114/20/1
f 110/4/1 120/8/1 106/7/1
f 117/42/1 109/2/1 105/33/1
f 114/20/1 129/22/1 110/4/1
f 112/26/2 125/15/2 126/27/2
f 97/32/1 117/42/1 105/33/1
f 131/1/1 132/38/1 109/2/1
f 110/4/1 129/22/1 130/5/1
f 115/10/2 128/30/2 135/11/2
f 116/13/2 133/12/2 134/14/2
f 114/20/1 136/41/1 137/21/1
f 112/26/2 123/28/2 124/31/2
f 121/17/2 122/37/2 111/29/2
f 127/36/2 128/30/2 111/29/2
f 113/39/1 132/38/1 138/40/1
f 110/4/1 119/6/1 120/8/1
f 117/42/1 118/3/1 109/2/1
f 142/43/2 141/44/2 145/45/2 146/46/2
f 140/47/1 139/48/1 143/49/1 144/50/1
f 141/44/2 103/19/2 107/18/2 145/45/2
f 144/50/1 106/7/1 102/35/1 140/47/1
f 143/49/1 139/48/1 101/34/1 105/33/1
f 142/43/2 146/46/2 108/23/2 104/25/2
s 1
f 120/51/3 121/52/3 99/53/4 98/54/4
f 97/55/5 101/56/6 104/57/6 100/58/5
f 98/54/4 99/53/4 103/59/7 102/60/7
f 131/61/8 118/62/9 123/63/9 126/64/8
f 125/65/10 134/66/11 138/67/11 132/68/10
f 128/69/12 129/70/12 137/71/13 135/72/13
f 130/73/14 127/74/14 122/75/15 119/76/15
f 117/77/16 97/55/5 100/58/5 124/78/16
f 119/76/15 122/75/15 121/52/3 120/51/3
f 131/79/8 126/80/8 125/65/10 132/68/10
f 129/70/12 128/69/12 127/81/14 130/82/14
f 117/77/16 124/78/16 123/63/9 118/62/9
f 138/67/11 134/66/11 133/83/17 136/84/17
f 136/84/17 133/83/17 135/72/13 137/71/13
f 101/56/6 139/85/18 142/86/18 104/57/6
f 103/59/7 141/87/19 140/88/19 102/60/7
f 141/89/20 142/90/20 139/91/20 140/92/20
g InerWallDoor_Cube.005_WoodDown
usemtl WoodDown
s off
f 17/93/18 2/94/18 4/95/18 18/96/18
f 72/97/20 16/98/20 53/99/20 92/100/20
f 19/101/19 8/102/19 6/103/19 20/104/19
f 8/102/19 19/101/19 59/105/19 52/106/19
f 9/107/17 7/108/17 5/109/17 14/110/17
f 11/111/20 4/112/20 2/113/20 16/98/20
f 8/114/20 12/115/20 15/116/20 6/117/20
f 67/118/20 11/111/20 16/98/20 72/97/20
f 3/119/17 10/120/17 13/121/17 1/122/17
f 65/123/17 9/107/17 14/110/17 70/124/17
f 16/98/20 2/113/20 50/125/20 53/99/20
f 23/126/17 18/127/17 58/128/17 63/129/17
f 6/117/20 15/116/20 57/130/20 56/131/20
f 18/96/18 4/95/18 54/132/18 58/133/18
f 25/134/1 18/135/1 23/136/1 30/137/1
f 27/138/2 20/139/2 21/140/2 28/141/2
f 29/142/2 22/143/2 17/144/2 32/145/2
f 26/146/19 19/101/19 20/104/19 27/147/19
f 31/148/1 24/149/1 19/150/1 26/151/1
f 32/152/18 17/93/18 18/96/18 25/153/18
f 1/154/18 32/152/18 25/153/18 3/155/18
f 74/156/20 29/157/20 45/158/20 86/159/20
f 7/160/19 26/146/19 27/147/19 5/161/19
f 7/108/17 9/107/17 41/162/17 37/163/17
f 27/164/20 28/165/20 44/166/20 38/167/20
f 10/120/17 3/119/17 34/168/17 35/169/17
f 29/157/20 32/170/20 48/171/20 45/158/20
f 3/155/18 25/153/18 33/172/18 34/173/18
f 24/174/21 31/175/21 28/176/21 21/177/22
f 75/178/23 30/179/23 29/157/23 74/156/23
f 30/180/24 23/181/25 22/182/25 29/183/24
f 41/184/1 47/185/1 36/186/1 37/187/1
f 43/188/2 45/189/2 48/190/2 42/191/2
f 39/192/2 38/193/2 44/194/2 40/195/2
f 83/196/2 86/197/2 45/189/2 43/188/2
f 34/198/1 33/199/1 46/200/1 35/201/1
f 81/202/1 88/203/1 47/185/1 41/184/1
f 66/204/17 10/120/17 35/169/17 82/205/17
f 26/146/19 7/160/19 37/206/19 36/207/19
f 25/208/20 30/179/20 46/209/20 33/210/20
f 32/152/18 1/154/18 42/211/18 48/212/18
f 76/213/20 31/214/20 47/215/20 88/216/20
f 1/122/17 13/121/17 43/217/17 42/218/17
f 31/214/20 26/219/20 36/220/20 47/215/20
f 5/161/19 27/147/19 38/221/19 39/222/19
f 70/124/17 14/110/17 40/223/17 84/224/17
f 14/110/17 5/109/17 39/225/17 40/223/17
f 64/226/1 51/227/1 52/228/1 59/229/1
f 62/230/2 53/231/2 50/232/2 49/233/2
f 60/234/2 56/235/2 57/236/2 61/237/2
f 96/238/2 92/239/2 53/231/2 62/230/2
f 58/240/1 54/241/1 55/242/1 63/243/1
f 94/244/1 90/245/1 51/227/1 64/226/1
f 79/246/17 21/247/17 61/248/17 95/249/17
f 12/115/20 8/114/20 52/250/20 51/251/20
f 20/104/19 6/103/19 56/252/19 60/253/19
f 21/247/17 20/254/17 60/255/17 61/248/17
f 17/256/17 22/257/17 62/258/17 49/259/17
f 4/112/20 11/111/20 55/260/20 54/261/20
f 68/262/20 12/115/20 51/251/20 90/263/20
f 2/94/18 17/93/18 49/264/18 50/265/18
f 19/266/17 24/267/17 64/268/17 59/269/17
f 77/270/17 23/126/17 63/129/17 93/271/17
f 23/126/17 77/270/17 80/272/17 22/257/17
f 77/270/17 78/273/17 79/246/17 80/272/17
f 78/273/17 24/267/17 21/247/17 79/246/17
f 24/267/17 78/273/17 94/274/17 64/268/17
f 78/273/17 77/270/17 93/271/17 94/274/17
f 11/111/20 67/118/20 89/275/20 55/260/20
f 67/118/20 68/262/20 90/263/20 89/275/20
f 22/257/17 80/272/17 96/276/17 62/258/17
f 80/272/17 79/246/17 95/249/17 96/276/17
f 63/243/1 55/242/1 89/277/1 93/278/1
f 93/278/1 89/277/1 90/245/1 94/244/1
f 61/237/2 57/236/2 91/279/2 95/280/2
f 95/280/2 91/279/2 92/239/2 96/238/2
f 13/121/17 69/281/17 83/282/17 43/217/17
f 69/281/17 70/124/17 84/224/17 83/282/17
f 30/179/20 75/178/20 87/283/20 46/209/20
f 75/178/20 76/213/20 88/216/20 87/283/20
f 9/107/17 65/123/17 81/284/17 41/162/17
f 65/123/17 66/204/17 82/205/17 81/284/17
f 35/201/1 46/200/1 87/285/1 82/286/1
f 82/286/1 87/285/1 88/203/1 81/202/1
f 40/195/2 44/194/2 85/287/2 84/288/2
f 84/288/2 85/287/2 86/197/2 83/196/2
f 31/214/23 76/213/23 73/289/23 28/165/23
f 76/213/23 75/178/23 74/156/23 73/289/23
f 28/165/20 73/289/20 85/290/20 44/166/20
f 73/289/20 74/156/20 86/159/20 85/290/20
f 10/120/17 66/204/17 69/281/17 13/121/17
f 66/204/17 65/123/17 70/124/17 69/281/17
f 12/115/20 68/262/20 71/291/20 15/116/20
f 68/262/20 67/118/20 72/97/20 71/291/20
f 15/116/20 71/291/20 91/292/20 57/130/20
f 71/291/20 72/97/20 92/100/20 91/292/20
