# Blender v3.0.1 OBJ File: 'untitledProps.blend'
# www.blender.org
mtllib Paper2.mtl
o Paper2_meshId3_name
v -0.370763 0.007488 0.244262
v 0.367744 0.020711 0.248034
v 0.370787 -0.008872 -0.244179
v -0.367719 -0.022096 -0.247951
v -0.370787 0.008872 0.244179
v 0.367719 0.022096 0.247951
v 0.370763 -0.007488 -0.244262
v -0.367743 -0.020711 -0.248034
vt 0.987949 0.465941
vt 0.702878 0.032618
vt 0.699963 0.463995
vt 0.990864 0.034564
vt 0.987949 0.465941
vt 0.699963 0.463995
vt 0.702878 0.032618
vt 0.990864 0.034564
vn 0.0176 -0.9980 0.0601
vn -0.0176 0.9980 -0.0601
vn 0.0062 -0.0600 -0.9982
vn -0.9998 -0.0179 -0.0051
vn -0.0062 0.0600 0.9982
vn 0.9998 0.0179 0.0051
g Paper2_meshId3_name_lambert1
usemtl lambert1
s off
f 4/1/1 2/2/1 1/3/1
f 2/2/1 4/1/1 3/4/1
f 8/5/2 5/6/2 6/7/2
f 6/7/2 7/8/2 8/5/2
f 3/4/3 4/1/3 8/5/3 7/8/3
f 4/1/4 1/3/4 5/6/4 8/5/4
f 1/3/5 2/2/5 6/7/5 5/6/5
f 2/2/6 3/4/6 7/8/6 6/7/6
